<svg xmlns="http://www.w3.org/2000/svg" version="1.2" width="414.2" height="308.5" viewBox="0 0 414.2 308.5" overflow="inherit"><g><path d="M326.5 53.9l-.2-.3.025.3h.175zm1.375 2.425l.024.525-.05.05.226-.1-.2-.475zm-59.025-17.975c.112-.394.246-.785.4-1.175l-2.601.225c-.6.066-1.25.184-1.949.35l-2.351.45c-.833.167-1.733.384-2.7.65-.966.233-1.966.517-3 .85l-6.899 2.6c-.601.267-1.2.566-1.8.899-.634.3-1.267.634-1.9 1-.634.334-1.25.7-1.85 1.101-.634.399-1.25.833-1.851 1.3-.6.467-1.184.983-1.75 1.55-.566.533-1.116 1.116-1.649 1.75l-2.15 3-4.05 7.4-9.101 19.949-1.399 2.9c-.5.967-1.017 1.934-1.55 2.9l-.325.574 8.075-7.975 5.35-6.8c.5-.7 1.017-1.367 1.55-2 .5-.634 1.017-1.25 1.55-1.851.367-.399.733-.783 1.101-1.149.366-.4.75-.767 1.149-1.101.367-.366.75-.699 1.15-1 .4-.333.8-.649 1.2-.949.399-.301.8-.584 1.2-.851.399-.3.816-.566 1.25-.8.267-.2.566-.384.899-.55l3.9-2 10.1-3.95c.434-.2.851-.4 1.25-.6l1.2-.65c.366-.2.717-.417 1.05-.65l.9-.6.85-.65c.5-.433.934-.85 1.3-1.25l.5-.6.875-1.2c.063-.703.139-1.402.226-2.1.1-1.066.233-2.101.399-3.101l1.101-4.946.35-.95zm-4.05 33.8l-.1-.9c-.034-.633-.034-1.267 0-1.899 0-.601.033-1.2.1-1.8l1.85-17 .025-.2-.425.6c-.134.2-.3.4-.5.601-.367.433-.8.899-1.3 1.399-.267.2-.534.434-.801.7-.3.233-.616.467-.949.7-.334.233-.684.467-1.051.7l-1.199.699c-.4.2-.817.417-1.25.65l-1.4.6-10.15 4.45-2.149 1.3c-.3.167-.584.351-.851.551-.6.366-1.166.767-1.699 1.199-.601.434-1.167.9-1.7 1.4-.533.467-1.066.967-1.601 1.5-.533.533-1.033 1.1-1.5 1.7-.267.267-.517.566-.75.899l-5.15 7.101c-.566.733-1.15 1.45-1.75 2.149-.634.7-1.283 1.4-1.95 2.101l-4 4c-.667.633-1.333 1.3-2 2l-2 2c-.667.7-1.3 1.416-1.9 2.149-.633.7-1.233 1.434-1.8 2.2l-3.45 5c-.267.4-.55.816-.85 1.25l-1 1.3-2.1 2.65-1.2 1.2-2.45 2.35-24.6 19.551 13.775-2.399 8.175-1.9 3.801-1.649c.6-.301 1.216-.634 1.85-1 .6-.367 1.2-.75 1.8-1.15l3.55-2.5c1.2-.866 2.45-1.7 3.75-2.5 1.267-.833 2.584-1.616 3.95-2.35 2.667-1.5 5.483-2.801 8.45-3.9.733-.267 1.483-.517 2.25-.75.767-.267 1.533-.483 2.3-.65.767-.233 1.533-.416 2.3-.55.664-.173 1.339-.307 2.025-.399l-.075-.9c0-.366.033-.733.101-1.1.033-.367.1-.733.199-1.101l.15-.35.1-.4.2-.35.101-.3.6-.9.05-.05.05-.101 1.051-1.1 2.399-2.05 4.7-3.2c.566-.366 1.167-.717 1.8-1.05.634-.367 1.267-.717 1.9-1.05.633-.334 1.3-.634 2-.9.666-.267 1.35-.483 2.05-.65l3.45-1 2.25-1 .399-.3 1.25-.75c.534-.399 1.067-.816 1.601-1.25l1.5-1.3 1.675-1.625-2.177-3.876-1.05-2.7-.45-1.9-.2-1.9zm1.9 14.75l-2.65 1.9-.95.55-3.5 1.399-.55.101-3.95 1.1-5.5 2.8c-.6.367-1.184.733-1.75 1.101-.6.366-1.184.75-1.75 1.149-.566.4-1.116.801-1.649 1.2-.567.434-1.101.867-1.601 1.3l-1.05 1.051-.05.1-.05.05-.45.65-.2.399c-.1.101-.167.233-.2.4l-.149.4c-.101.399-.167.816-.2 1.25-.066.433-.084.866-.05 1.3.483-.073.966-.14 1.449-.2.801-.066 1.601-.116 2.4-.15l1.15-.05 7.899.4 3 .649 1.825.7.725-.05 3.351.2.3.05h.3l9.7 2.3 1.95.3 3.7-.1 2.949-.7h.101l.1-.05 3.55-1.25.801-.4c.447-.224.881-.457 1.3-.699-.247-.286-.497-.569-.75-.851l-7.15-6.45c-.5-.5-.967-1-1.399-1.5-.467-.533-.917-1.066-1.351-1.6-.434-.566-.833-1.134-1.2-1.7-.366-.6-.716-1.184-1.05-1.75l-4.45-7.925-1.35 1.275c-.534.467-1.068.917-1.601 1.351zm-15.801 20.65l-3.05-.051-.6.051-1.4.25c-.267.033-.517.116-.75.25-.467.133-.833.399-1.1.8-.267.399-.45.883-.55 1.45-.134.533-.217 1.116-.25 1.75l-.075.524 3.975-2.725 4.575-2.101-.775-.198zm73.051-6.475l.125.025-.025-.075-.1.05zm-33.6 12.875l1.3-.524-1.85-3.575c-.634.2-1.25.416-1.85.649-.634.2-1.25.384-1.851.551l-.149.05-.601.2-6.45 1.6-2.449.2-3-.25-2.7-.625-2-.226c.31.139.626.288.95.45l1.4.55.5.25.3.101.051.05h.149l3.15.9c.467.1.95.199 1.45.3l2.85.399 4.25.051c.467 0 .934-.034 1.4-.101l1.399-.149.4-.101.95-.149 1.899-.5.502-.101zm8.35 8.55l.399-.149-.425.149h.026zm2.4 15.35c.367-.367.767-.7 1.2-1 .308-.309.642-.592 1-.851l-1.3-2.524c-4.379 2.218-8.712 4.693-13 7.425-1.101.733-2.184 1.5-3.25 2.3-1.101.767-2.15 1.584-3.15 2.45-1.066.833-2.083 1.717-3.05 2.65-.451.421-.893.846-1.325 1.274l.275-.125c.2-.066.434-.133.7-.2.267-.066.55-.1.85-.1h.3c.2 0 .434.017.7.05.333.033.684.134 1.05.3.367.134.733.317 1.101.551.333.199.666.449 1 .75.333.3.666.616 1 .949l2.1 2.15c.167.167.366.333.6.5.2.134.417.233.65.3.167.066.35.101.55.101h.15c.2-.034.416-.117.649-.25.434-.301.834-.667 1.2-1.101.367-.467.7-.967 1-1.5l4.95-9.45.7-.85.3-.45c.3-.399.616-.783.95-1.149.333-.4.684-.784 1.05-1.15.333-.366.683-.717 1.05-1.05zm2.15.2c-.4.3-.767.616-1.101.949-.399.301-.767.617-1.1.95-.333.334-.667.684-1 1.05-.333.334-.65.684-.95 1.051l-1 1.199-5.25 9.15-.55.8c-.2.233-.4.483-.6.75-.2.233-.417.45-.65.65-.267.2-.533.383-.8.55-.2.1-.4.184-.601.25-.199.033-.383.05-.55.05h-.098c-.233-.033-.45-.083-.65-.149-.2-.067-.383-.15-.55-.25l-.45-.351-.45-.35-2-2.25c-.333-.367-.649-.7-.949-1-.334-.3-.65-.566-.95-.8-.334-.233-.667-.417-1-.551-.334-.166-.667-.267-1-.3-.3-.066-.584-.1-.851-.1h-.05c-.3 0-.583.033-.85.1-.267.033-.5.084-.7.15l-.625.274c-.434.42-.859.845-1.275 1.275-.6.667-1.183 1.35-1.75 2.05-.6.667-1.166 1.367-1.699 2.101-.567.699-1.117 1.416-1.65 2.149-.533.7-1.05 1.434-1.55 2.2-.533.7-1.033 1.434-1.5 2.2-.5.767-.983 1.533-1.45 2.3l-3.75 5.425 5.95-.725 17.85-.2 2.45-.3c.4-.101.8-.184 1.2-.25l1.2-.3c.366-.134.75-.267 1.149-.4.367-.134.733-.283 1.101-.45l1.05-.6.899-.7.301-.2 1.1-1.149.05-.15.2-.2c.167-.366.35-.717.55-1.05.134-.366.283-.75.45-1.15l1.7-4.85c.166-.4.366-.783.6-1.15.233-.399.5-.783.8-1.149l.301-.351.75-.6.55-.35.5-.15.2-.1c.3-.101.616-.15.949-.15h.9c.3 0 .6.033.9.1.566.101 1.133.25 1.699.45.534.2 1.067.434 1.601.7.5.233 1 .5 1.5.8.366.2.733.434 1.1.7.367.233.717.483 1.05.75l.95.675-10.774-19.625c-.293.189-.567.389-.827.602zm-.55 17.25c-.233.3-.434.616-.601.949-.2.367-.383.733-.55 1.101-.167.399-.3.8-.4 1.2l-1.149 3.65c-.134.4-.283.8-.45 1.2-.2.434-.4.85-.6 1.25l-.45.65-1 1.1c-.101.1-.217.2-.351.3l-1.05.9-1.2.649-1.199.601c-.434.166-.851.316-1.25.45-.434.133-.867.25-1.301.35-.433.1-.866.184-1.3.25l-3.899.5-16.5.35-7.676.9-.574.65-3.9 4.35-.65.75c-.233.233-.483.45-.75.65-.267.233-.533.449-.8.649-.267.167-.55.334-.85.5l-.9.351c-.333.133-.649.25-.95.35l-8.75 2.3c-.566.167-1.116.351-1.649.55-.566.167-1.101.367-1.601.601-.533.2-1.033.434-1.5.7-.274.146-.541.296-.8.449l33.351-1.199 3.149-.351 3.101-.399 3-.5 2.899-.601c.934-.2 1.867-.416 2.8-.649l11.301-3.75 13.75-7.25 1.3-.9 4.649-3.75 1.226-1.225-3.375-6.101c-.164-.131-.331-.256-.5-.375-.367-.267-.717-.5-1.05-.7l-2.2-1.3c-.4-.2-.783-.383-1.15-.55-.366-.167-.75-.316-1.149-.45-.4-.166-.784-.3-1.15-.399-.4-.101-.8-.184-1.2-.25-.3-.067-.6-.084-.899-.051h-.301c-.399.034-.783.101-1.149.2l-.45.2-.55.35-.55.5-.253.3zm-48.9 23c.533-.267 1.017-.584 1.45-.95.434-.434.866-.884 1.3-1.351l3.375-4.149-18.275 2.1-17.5 3.351-9.8 2.649-4.7 1.9-7.85 4.2-3.6 1.5c-.4.133-.816.267-1.25.399-.433.101-.85.2-1.25.3l-1.65.25h-.65l-.3.051h-1.3l-.35-.051h-.35l-.35-.05-.4-.1c-.233-.134-.45-.25-.65-.351l-1.05-.699c-.167-.101-.333-.184-.5-.25-.3-.101-.567-.15-.8-.15h-.2c-.3.033-.617.15-.95.35l-.3.2-.1.101c-.1.1-.167.199-.2.3-.066.1-.083.217-.05.35 0 .167.033.351.1.55l.1.95v.5l-.15.8-.3.65-.1.15-.1.3c-.033.166-.05.35-.05.55l-.05.6v.2l-.1.351-.15.199-.2.2-.2.101-.15.05-.4.05h-.5l-.7-.1-.15-.051h-.1l-.1-.05-.3-.1-.1-.05-.15-.15c-.133-.1-.25-.2-.35-.3l-.95-1.45-.05-.1c-.1.433-.15.866-.15 1.3-.066.399-.1.8-.1 1.2v1.774c.679-.172 1.362-.33 2.05-.475 1.267-.267 2.55-.517 3.85-.75 1.267-.233 2.533-.417 3.8-.55 1.267-.167 2.55-.317 3.85-.45 1.3-.134 2.583-.233 3.85-.3l1.375-.075 3.024-1.525c.434-.233.884-.416 1.351-.55l10.899-3.75 5.601-1.3 16.85-2.05h.226l.274-.2c.3-.233.617-.434.95-.601.333-.199.667-.383 1-.55l5.2-2 7.899-2.2c.267-.1.551-.199.851-.3l.8-.398zm9.5 7.15c-1.7.066-3.4.117-5.1.15l-11.25.05c-1.7 0-3.4.017-5.101.05-1.733.033-3.45.101-5.149.2l-.601.025c-.36.318-.693.677-1 1.074-.333.367-.649.767-.95 1.2-.3.434-.566.867-.8 1.3l-1.1 1.75-.601.801c-.333.399-.683.75-1.05 1.05-.366.3-.767.583-1.2.85-.433.233-.85.434-1.25.601-.433.166-.866.3-1.3.399l-1.6.351 16.8 2.699 6.85 1.5c.733.101 1.483.217 2.25.351l2.301.3 9.899.55c.934-.033 1.867-.05 2.8-.05l2.7-.1 12.351-1.25 14-2.801 3.8-1.225 10.024-4.925.226-.25c.2-.3.399-.584.6-.851l.5-.899c.167-.334.334-.65.5-.95l.4-.95 2.7-8c.333-1.1.683-2.116 1.05-3.05.333-.967.684-1.85 1.05-2.65.366-.8.75-1.533 1.15-2.199.366-.667.75-1.233 1.149-1.7.267-.334.533-.601.8-.8.233-.267.483-.467.75-.601.175-.124.341-.232.5-.325l-.1-.125-.7-1.274-5.7 4.825-1.399.899c-.7.467-1.45.934-2.25 1.4-.834.467-1.7.95-2.601 1.45l-2.8 1.449c-1 .5-2.017 1-3.05 1.5l-3.35 1.5-11.65 3.75c-1.4.334-2.833.65-4.3.95-1.5.267-3.017.517-4.55.75-1.567.2-3.15.4-4.75.601-1.601.133-3.217.267-4.851.399-1.663.101-3.347.184-5.047.251zm57.75-17.45c-.161-.2-.311-.4-.45-.6l-.85.6c-.334.267-.684.65-1.05 1.15-.367.467-.717 1.033-1.051 1.7-.166.3-.333.633-.5 1l-.5 1.149-3.949 12.95-.5 1.3-.601 1.301c-.101.235-.209.469-.325.699l18.375-9.05c.434-.3.867-.566 1.301-.8.399-.267.767-.517 1.1-.75.333-.267.65-.517.95-.75l.7-.7c.233-.233.416-.45.55-.649l.35-.551.2-.324-7.75-3.226-3.3-2.05c-.334-.233-.65-.483-.95-.75-.3-.233-.6-.483-.9-.75-.3-.299-.584-.599-.85-.899zm31.75-55.95l-.025.024.075.075-.05-.099zm-146.276-8.875c-.506.396-1.015.787-1.524 1.175-.967.7-1.934 1.383-2.9 2.05-4.066 2.667-8.333 5.05-12.8 7.15-1.5.699-3.017 1.383-4.55 2.05l-4.6 1.899-4.7 1.801-7 2.6-13.7 7.475 9-.375 9.15-1.399c.566-.101 1.117-.233 1.65-.4.533-.166 1.067-.35 1.6-.55l1.55-.7.35-.25.4-.2.7-.449 24.95-19.601 2.424-2.276zm-20.774 32.425c.319-.272.686-.506 1.1-.7.267-.167.55-.3.85-.4.3-.133.617-.25.95-.35.333-.1.683-.184 1.05-.25.333-.066.684-.116 1.05-.15l1.55-.149.75-.15c.367-.066.75-.149 1.15-.25l12-4.25 8.149-4 3.75-2.399c.334-.233.684-.45 1.05-.65l1.051-.6 3.5-1.45 13.75-3.9c.166-.066.316-.149.449-.25l.15-.1.15-.15.05-.1.2-.2.399-.85c.3-.601.517-1.2.65-1.801l.1-.949c.033-.301.05-.617.05-.95l-.3-3.425c-.619.083-1.235.191-1.85.324-.733.134-1.467.284-2.2.45-.767.167-1.517.367-2.25.601-.733.234-1.45.466-2.15.699-.733.233-1.449.5-2.149.801-.733.267-1.434.566-2.101.899-.699.3-1.383.617-2.05.95-.7.3-1.383.634-2.05 1l-14.1 8.75-1 .45c-.667.3-1.317.583-1.95.85-.667.267-1.334.517-2 .75l-2 .601c-.7.199-1.367.383-2 .55-1.333.267-2.65.533-3.95.8-.595.089-1.178.173-1.75.25-.717.107-1.417.208-2.1.3l-7.35.95c-1.167.134-2.3.283-3.4.45l-.6.075-.1.074-2.35 1.301-1.6.649-2.8.75-7.2 1.15-2.6 1.45c-.3.166-.583.366-.85.6-.566.366-1.083.75-1.55 1.15-.5.399-.933.783-1.3 1.149-.4.367-.75.717-1.05 1.05l-1.05 1.101-.05-.05.052-.051.1-.199c.233-.301.517-.601.85-.9.3-.366.633-.733 1-1.1.367-.367.8-.75 1.3-1.15.467-.4.983-.8 1.55-1.2.267-.233.55-.45.85-.649l2.15-1.101-1.6.25-15.5.775-26.75 14.625-4.5 3.05-22.05 19-21.9 15.65-2.3 2.1c-.4.333-.767.684-1.1 1.05l-2.3 2.2c-1.667 1.434-3.45 2.616-5.35 3.55-.933.467-1.867.867-2.8 1.2-.967.366-1.933.667-2.9.9-.934.267-1.867.5-2.8.699-.966.167-1.9.317-2.8.45l-11.9 1.75-11.4 2.95c-1.267.333-2.483.7-3.65 1.1-1.167.367-2.267.733-3.3 1.101l-8.35 4.1-2 1.5c-.367.267-.65.5-.85.7l-.7.65h-.05l-.2-.2v-.05l.65-.7c.2-.233.467-.5.8-.8l1.25-1.051c.434-.366.967-.767 1.6-1.199l.95-.65 4.95-2.7 8.45-3.2 11.45-3.399 14.6-2.7 5.3-1.6 1.3-.5c.4-.2.817-.417 1.25-.65.4-.233.817-.467 1.25-.7.4-.233.8-.483 1.2-.75.367-.267.75-.55 1.15-.85.367-.3.733-.617 1.1-.95l3.25-3.25c.367-.4.767-.783 1.2-1.15l10.35-8.35 8.5-5.8 8.3-6.3c.867-.767 1.75-1.534 2.65-2.301l2.7-2.399 5.45-4.95c.9-.833 1.833-1.65 2.8-2.45.967-.8 1.95-1.583 2.95-2.35 1-.767 2.033-1.517 3.1-2.25 1.066-.7 2.167-1.384 3.3-2.05l22.35-11.602-7.85.95-27.85.55c-1.133.033-2.233.084-3.3.15-1.133.033-2.233.1-3.3.2-1.067.066-2.133.183-3.2.35-1.067.134-2.117.283-3.15.45l-19.4 4.7-7 .75-21.45-.3-10.15-1.25-15.8-3.85-6.5-1.05-1-.101-12.85-.899v-.4l12.9.45c.333 0 .683.017 1.05.05l7.6 1.05 5.95 1.301c1.367.366 2.8.699 4.3 1 1.467.3 3 .566 4.6.8 1.566.233 3.183.45 4.85.649 1.667.167 3.383.301 5.15.4l5.35.2 17.3-.45 4.5-.6c.5-.067 1-.167 1.5-.301l4.6-1 1.5-.399 12.5-3.351c1.066-.233 2.167-.416 3.3-.55 1.1-.166 2.2-.283 3.3-.35 1.1-.134 2.233-.217 3.4-.25 1.1-.101 2.217-.15 3.35-.15l20.65-.3 21.975-2.075 11.075-6.225 7.8-3.851 13.2-4.85 3.4-1.4c1.133-.5 2.25-1 3.35-1.5s2.2-1.017 3.3-1.55c1.066-.533 2.133-1.083 3.2-1.649 1.033-.567 2.067-1.15 3.1-1.75 1.033-.634 2.05-1.267 3.05-1.9l1.9-1.3 1.899-1.4c.601-.467 1.2-.95 1.801-1.45.6-.5 1.183-.983 1.75-1.449l1.699-1.601 1.601-1.6c.366-.4.733-.816 1.1-1.25.367-.434.733-.851 1.101-1.25.366-.467.716-.917 1.05-1.351.333-.433.649-.866.95-1.3l3.449-5.6c1.034-1.934 2.034-3.834 3-5.7.934-1.9 1.834-3.783 2.7-5.65l7.55-15.8c.434-.833.867-1.633 1.301-2.399.433-.801.883-1.567 1.35-2.301l3-4.199c.366-.434.733-.834 1.1-1.2.4-.4.801-.783 1.2-1.15.4-.333.816-.649 1.25-.95.434-.333.867-.633 1.3-.899.4-.3.817-.584 1.25-.851l8.7-4 10.75-2.85 5.5-.65h.101c.167-.391.35-.758.55-1.1l.149-.275.15-1.074c.033-.267.1-.551.2-.851.1-.3.233-.633.399-1 .134-.366.301-.733.5-1.1.167-.4.384-.816.65-1.25.233-.434.517-.884.85-1.351.267-.466.584-.949.95-1.449.367-.5.75-1 1.15-1.5.399-.534.833-1.067 1.3-1.601.7-.8 1.45-1.633 2.25-2.5.8-.866 1.667-1.733 2.6-2.6.934-.9 1.934-1.783 3-2.65 1.034-.899 2.15-1.8 3.351-2.7l6-3.8c.366-.167.75-.333 1.149-.5.4-.167.834-.3 1.301-.4l26.899-6.2 10.65-2.048 8.2-.8 6.75.2c.566.067 1.149.15 1.75.25.566.067 1.133.167 1.699.3.567.1 1.15.217 1.75.35l1.7.5.851.3c.3.1.6.217.899.35l3.2 1.7.75.5c.267.167.517.35.75.55l1.9 1.5c.6.533 1.183 1.066 1.75 1.6l4.899 5 12.75 10.45c.233.166.467.366.7.6l.95 1.05.35.3 3.8 5.301.2.399.25.351.851 1.85c.133.3.25.6.35.9l3.1 10.949.9 2.101c.167.333.35.684.55 1.05l.601 1 .649 1.15 5.9 8.85c.434.667.85 1.35 1.25 2.05.399.667.8 1.367 1.2 2.101.399.699.783 1.416 1.149 2.149.334.7.684 1.417 1.05 2.15.5 1.066.967 2.166 1.4 3.3.434 1.1.85 2.217 1.25 3.35.366 1.134.717 2.284 1.05 3.45.3 1.134.584 2.283.851 3.45.233 1.134.449 2.283.649 3.45l.5 3.399 1.601 15.25-.2 3.4-.25 1.6c-.134.567-.283 1.134-.45 1.7-.167.533-.35 1.066-.55 1.601l-.7 1.5c-.233.466-.483.949-.75 1.449l-5.25 8.9-.85 1.8-3.5 11.101-1.101 2.6c-.2.4-.399.816-.6 1.25-.2.4-.417.8-.65 1.2-.467.8-.95 1.566-1.45 2.3-.533.733-1.066 1.45-1.6 2.15-.566.666-1.15 1.316-1.75 1.949-.6.601-1.2 1.184-1.8 1.75-.634.567-1.25 1.101-1.851 1.601-.633.5-1.267.983-1.899 1.45l-17.2 12.5-8.775 5.55-.074.3-.2.5c-.101.134-.2.283-.3.45-.134.133-.267.25-.4.35l-.55.45-.601.3c-.399.167-.783.316-1.149.45-.4.1-.783.2-1.15.3l-2.25.4c-.533.066-1.05.133-1.55.2l-3 .199c-.5.034-.967.084-1.4.15-.466.033-.916.116-1.35.25-.434.1-.85.25-1.25.45-.333.133-.65.283-.95.45l-.2.1-.1.1-.1.051-.5.3c-.267.133-.517.233-.75.3-.233.067-.45.116-.65.15l-1.3.149h-.351c-.433-.033-.85-.05-1.25-.05l-1.55-.2-3.3-.75-.05.101c-.101.233-.217.466-.351.699-.133.233-.3.5-.5.801l-.699.8c-.4.399-.867.816-1.4 1.25-.533.434-1.134.85-1.8 1.25-.667.399-1.384.816-2.15 1.25-.767.399-1.583.816-2.45 1.25l-18.175 8.5-.274.3c-.4.366-.834.717-1.301 1.05-.333.233-.683.45-1.05.65l-1.1.6-5.226 1.9-1.675.85c-.733.367-1.483.75-2.25 1.15-.767.399-1.55.783-2.35 1.149-.8.334-1.601.684-2.4 1.051-.833.333-1.666.649-2.5.949l-2.6.9c-.867.3-1.75.566-2.65.8-.899.233-1.816.467-2.75.7-.934.2-1.866.384-2.8.55l-23.65 3.25-26.75 4.4-7.85 2.149c-.533.167-1.05.351-1.55.551-.5.199-.983.416-1.45.649-.467.233-.934.5-1.4.8-.466.267-.916.551-1.35.851l-5.7 3.45-8.85 4.55-11.25 6.7-23.3 17.3-18.15 11-5.15 2.6c-1.7.834-3.383 1.65-5.05 2.45-1.667.767-3.316 1.5-4.95 2.2l-4.85 2.1c-1.6.7-3.133 1.4-4.6 2.101-3 1.399-5.75 2.949-8.25 4.649-2.533 1.7-4.683 3.566-6.45 5.601-.3.333-.567.666-.8 1-.3.333-.566.683-.8 1.05l-2.45 4.25-2.6 5.8c-.233.6-.433 1.184-.6 1.75l-.45 1.7c-.1.5-.183 1-.25 1.5l-.05.05c0-.533.066-1.066.2-1.6l1-3.45 2.6-5.851c.233-.533.5-1.066.8-1.6.267-.533.567-1.066.9-1.6.333-.567.7-1.101 1.1-1.601.367-.533.784-1.05 1.25-1.55.434-.533.9-1.05 1.4-1.55.466-.5.966-.983 1.5-1.45.533-.467 1.1-.934 1.7-1.4.567-.466 1.167-.899 1.8-1.3.633-.434 1.283-.85 1.95-1.25.633-.434 1.3-.85 2-1.25.7-.399 1.4-.783 2.1-1.149l2.2-1.101 24.55-11.6 18-11.15 23.15-17.399 11.3-6.851 10.753-5.649 3.649-2.4c.467-.333.934-.634 1.4-.9.467-.3.967-.583 1.5-.85l1.55-.7c.5-.2 1.017-.383 1.55-.55l3.95-1.25 12-2.55 42.4-6.5c.899-.167 1.816-.351 2.75-.55.899-.2 1.783-.417 2.649-.65l2.601-.8 2.5-.9c.833-.333 1.649-.666 2.45-1 .293-.127.584-.261.875-.399l-10.325 2.25c-1.033.166-2.05.316-3.05.449-1.034.134-2.067.25-3.101.351l-3.2.3-3.199.2-2.351.1-11.1-.399c-.767-.067-1.533-.15-2.3-.25-.767-.134-1.534-.25-2.301-.351-.767-.166-1.533-.316-2.3-.45l-13.899-3.25c-1.167-.267-2.351-.517-3.551-.75-1.199-.233-2.399-.449-3.6-.649-1.233-.2-2.45-.384-3.65-.55-.404-.055-.812-.113-1.225-.176l-.725.075c-.767.066-1.5.101-2.2.101l-8.547.198-1.051.2-.05-.05c.167-.1.334-.15.5-.15l.55-.1 9.476-.55-.425-.05c-1.233-.134-2.467-.25-3.7-.351-1.267-.133-2.517-.25-3.75-.35-1.267-.101-2.517-.167-3.75-.2-1.3-.066-2.566-.1-3.8-.1-1.267 0-2.534.033-3.801.1l-1.675.05-16.575 8.2c-.434.2-.833.417-1.2.65l-1.2.75c-.434.199-.833.433-1.2.699l-1.15.801-.3.149-27.7 20.4-2.15 1.3c-.733.366-1.434.783-2.1 1.25-.7.4-1.367.85-2 1.35l-7.35 5.65c-.6.434-1.2.85-1.8 1.25-.633.4-1.267.783-1.9 1.15-.633.366-1.283.683-1.95.949-.667.267-1.317.5-1.95.7-.667.2-1.333.384-2 .55-.667.167-1.316.317-1.95.45l-7.3 1.3c-.935.161-1.827.344-2.675.551l-20.174 17.852-15.7 13.1-8.3 9.45c-.966 1.233-1.867 2.45-2.7 3.65-.867 1.166-1.684 2.316-2.45 3.45-.767 1.1-1.467 2.183-2.1 3.25-.667 1.066-1.267 2.1-1.8 3.1l-5 7.7c-.267.366-.5.733-.7 1.1l-1.1 1.9-.6 1.35-.05.05-.2-.1v-.05l1.55-3.4c.2-.366.434-.733.7-1.1l10.7-18 1.75-2.5c.267-.434.567-.851.9-1.25l2.95-3.9c.533-.666 1.083-1.333 1.65-2 .567-.666 1.15-1.316 1.75-1.95l2.55-2.6c.433-.434.883-.85 1.35-1.25l18.4-15.65c.8-.699 1.617-1.416 2.45-2.149l10.05-9.05c-.822.213-1.605.463-2.35.75-.867.333-1.667.683-2.4 1.05-.4.166-.767.35-1.1.55-.333.2-.65.4-.95.6-.333.2-.633.417-.9.65-.267.2-.517.417-.75.65-.467.433-.867.883-1.2 1.35-.367.434-.633.85-.8 1.25l-.3.55-.4.95-.1.35-.05.051-.05-.051c.033-.233.133-.5.3-.8l.2-.55.3-.55c.2-.434.467-.867.8-1.3.333-.434.733-.867 1.2-1.301.967-.933 2.2-1.783 3.7-2.55.5-.267 1.033-.5 1.6-.7.566-.233 1.15-.449 1.75-.649.592-.23 1.201-.431 1.825-.601l12.825-11.55c1.2-1.066 2.433-2.133 3.7-3.2 1.233-1.066 2.483-2.133 3.75-3.199 1.233-1.067 2.517-2.117 3.85-3.15 1.267-1.066 2.567-2.116 3.9-3.15 1.3-1.033 2.633-2.05 4-3.05 1.367-1.033 2.733-2.05 4.1-3.05l6.75-4.65 9.5-5.699-.45-.051c-.3-.066-.583-.116-.85-.149l-.85-.25-3-1.15c-.5-.2-.983-.366-1.45-.5-.467-.166-.934-.3-1.4-.399l-.7-.15-1.3-.05-.2.05h-.1l-.15.05h-.15l-.5.2-.1.1-.1.051-.1.1-.1.05-.05.101-.1.1-.05.1-.1.15-.6 1.2-.65.05c-.467 0-.9.017-1.3.05-.467.033-.9.084-1.3.15-.433.033-.867.116-1.3.25-.4.1-.8.217-1.2.35-.533.2-1.05.434-1.55.7-.5.266-1 .566-1.5.9-.5.333-.983.683-1.45 1.05l-4.6 3.395-1.3.7c-.467.2-.917.384-1.35.55l-7.95 2.65-8.65 4.2-20.55 11.75c-.8.434-1.583.916-2.35 1.45-.8.5-1.55 1.017-2.25 1.55-1.467 1.1-2.783 2.35-3.95 3.75-.4.434-.767.899-1.1 1.399-.367.5-.717 1.017-1.05 1.551l-3.05 4.699c-.333.5-.65 1.017-.95 1.551-.333.533-.65 1.066-.95 1.6l-1.7 3.3h-.05l-.2-.1v-.05l.75-1.601v-.05l.8-1.7c.267-.566.566-1.116.9-1.649l4.15-7.301c.233-.399.483-.783.75-1.149.267-.4.55-.783.85-1.15.3-.399.617-.767.95-1.1.3-.367.617-.717.95-1.05.333-.334.683-.667 1.05-1 .367-.334.733-.634 1.1-.9l24.95-15.5 6.25-3.3 7.95-2.95c.567-.2 1.133-.384 1.7-.55l1.65-.65c.533-.267 1.05-.533 1.55-.8l1.65-1.1.25-.25 2.5-1.9c.367-.3.75-.583 1.15-.85.367-.301.767-.567 1.2-.801.433-.267.867-.517 1.3-.75.433-.233.9-.433 1.4-.6.3-.134.617-.233.95-.3.3-.101.617-.184.95-.25l2-.3 1.25-.049.1-.199.2-.301.25-.25.2-.3c.133-.133.267-.25.4-.35l.45-.3 1-.4.45-.1.5-.051 1.8.101.85.15c.533.134 1.067.301 1.6.5l.8.25 3.6 1.45.7.2c.2.033.433.083.7.15.2 0 .417.017.65.05h.7l.9-.101c.3-.1.617-.183.95-.25l2.45-.85c.267-.1.55-.167.85-.2.267-.066.567-.116.9-.149l.775-.051 1.6-.699.075-.2.15-.3.2-.301.2-.25c.133-.166.3-.3.5-.399.167-.134.35-.25.55-.351.233-.133.483-.216.75-.25.233-.1.467-.149.7-.149l.75-.05.2-.051c.267 0 .55.017.85.051l.05-1.601c0-.467.033-.899.1-1.3.033-.434.1-.866.2-1.3l.15-.95v-.15l.1-.399.1-.25.05-.2.1-.1.05-.101.15-.1.5-.2h.05l.5.15.2.149.2.2 1.4 2.55.15.2.15.15.1.05h.15l.6.1.15.05.05-.149v-.4c.033-.233.083-.467.15-.7l.65-1.449v-.2c.033-.167.05-.351.05-.55l-.2-1.301c0-.133.017-.267.05-.399 0-.167.034-.316.1-.45.067-.167.15-.3.25-.4.067-.133.167-.25.3-.35l.3-.25.35-.15c.1-.1.233-.183.4-.25.167-.066.333-.116.5-.149.167-.066.333-.101.5-.101h.2c.2 0 .4.017.6.051.233.066.467.149.7.25.233.1.45.216.65.35l1.05.7.5.3c.066.033.15.05.25.05l.8.101h.45l.4.05h.1l.3-.05h.95l1.5-.2c.833-.167 1.65-.367 2.45-.601.767-.233 1.55-.517 2.35-.85.733-.366 1.483-.733 2.25-1.1.767-.4 1.517-.801 2.25-1.2l5.7-2.9 12.2-3.899 26.25-5.45 12.625-1.55 1.725-2.15 2.65-4.2 1.399-2.3c.466-.767.967-1.533 1.5-2.3.5-.767 1.017-1.517 1.55-2.25.5-.767 1.034-1.5 1.601-2.2l1.7-2.2c.566-.733 1.166-1.434 1.8-2.1.6-.7 1.233-1.367 1.899-2 .667-.667 1.334-1.3 2-1.9.667-.633 1.367-1.25 2.101-1.85.666-.601 1.366-1.184 2.1-1.75.7-.566 1.417-1.117 2.15-1.65.733-.566 1.483-1.1 2.25-1.6l4.55-2.9 8.6-4.625-3.199-6.2-.65.125-8.55.15-.101.05h-.25l-.15.048h-.05l-3.95 1.351-.2.149-.45.2-.2.15-.899.5c-.3.166-.584.35-.851.55-.566.4-1.116.816-1.649 1.25-.533.434-1.05.884-1.55 1.35-.534.467-1.051.967-1.551 1.5-.5.5-1 1.017-1.5 1.551l-8.199 8.699-1.15 1.051c-.4.333-.8.683-1.2 1.05-.434.3-.85.616-1.25.95-.434.3-.883.6-1.35.899l-1.8 1.101-.301.1-1.1.55-.25.15-1.95.75-2.899.7-.65.1h-.15l-1.75.2c-.6.033-1.183.05-1.75.05l-1.3-.05c-.767-.033-1.517-.084-2.25-.15-.767-.1-1.517-.184-2.25-.25l-9.35-.95-.7.051c-.333-.034-.634-.034-.9 0l-3.101.448-2.4.75-2.199 1c-.534.233-1.067.5-1.601.801l-10.149 6-5.301 2.199c-.3.101-.583.184-.85.25l-18.55 3.851-.35.1-.7.101c-.4.033-.75.066-1.05.1l-2.5-.05c-.5.033-.917.1-1.25.2-.367.1-.684.233-.95.399-.267.167-.483.334-.65.5-.2.167-.35.316-.45.45l-.4.45-.4-.3.25-.551.25-.35c.067-.167.183-.316.35-.45.133-.166.3-.333.5-.5.167-.2.383-.366.65-.5.267-.166.567-.3.9-.399.3-.134.633-.233 1-.301l2.55-.35c.267-.033.533-.083.8-.15l19.3-6.199c.3-.134.617-.267.95-.4.467-.2.934-.417 1.4-.65.466-.233.949-.483 1.449-.75l11.601-7.551.899-.5c.301-.166.617-.333.95-.5l4.101-1.6.25-.05.1-.051h.05l4.15-.699c.366-.034.75-.051 1.149-.051h2.25c.767.034 1.517.101 2.25.2.733.066 1.467.15 2.2.25l4.25.7c.667.1 1.351.2 2.05.3l2 .2 3 .1 2.801-.35 1.949-.5 2.25-.95 1.301-.75c.566-.333 1.133-.7 1.699-1.1.534-.4 1.084-.816 1.65-1.25l1.6-1.4c.534-.467 1.067-.95 1.601-1.45l6.2-6.35c.5-.533 1.033-1.066 1.6-1.6.566-.534 1.134-1.051 1.7-1.551.566-.5 1.166-.983 1.8-1.449.634-.467 1.267-.9 1.9-1.301.333-.233.666-.449 1-.649l1.3-.7.3-.1.5-.301 2.3-.85 3.101-.7 1.899-.1 5.601.2c.272 0 .53-.009.774-.025l-3.45-6.7-1.625.625-2.85.7-1.55.2-1.5.2-4.65.05c-.533-.033-1.05-.084-1.55-.15-.533-.066-1.05-.133-1.55-.2-.533-.1-1.05-.199-1.55-.3-.534-.1-1.051-.217-1.551-.35l-.75-.15-2.8-.899-1-.45-1.399-.601c-.5-.233-.983-.483-1.45-.75l-7.4-4.3-1.899-.1c-.467 0-.917.033-1.351.1-.467.033-.916.084-1.35.15-.667.1-1.334.25-2 .45-.667.166-1.3.383-1.9.649-.666.267-1.3.55-1.899.851-.634.333-1.25.683-1.851 1.05-.633.333-1.233.7-1.8 1.1-.634.367-1.25.767-1.85 1.2l-1.226.8-.224 1.852c-.101.466-.217.916-.351 1.35-.133.4-.283.816-.449 1.25l-.601 1.2c-.333.6-.684 1.166-1.05 1.7-.4.566-.8 1.1-1.2 1.6-.434.467-.866.95-1.3 1.45l-1.45 1.35c-.267.2-.533.417-.8.65-.3.166-.6.35-.9.55-.3.134-.6.283-.899.45-.3.133-.617.25-.95.35-.4.167-.816.3-1.25.4l-3.7.9c-.434.101-.833.217-1.2.351-.399.1-.767.233-1.1.399-.566.233-1.083.517-1.55.851-.5.3-.934.684-1.3 1.149-.367.434-.684.9-.95 1.4l-.8 1.65c-.267.566-.5 1.149-.7 1.75l-1.2 3c-.2.366-.417.75-.65 1.149-.233.4-.483.783-.75 1.15-.133.133-.25.267-.35.399l-.5.45-.75.5-.45.25-.45.25-.5.2c-.166.066-.316.116-.449.15l-.95.3-10.351 2.1-25.3 2.7-.9-.075-.05.175-.25 1.551v.05l-.05-.351.15-1.25.025-.175-.225-.024c-.633-.067-1.267-.15-1.9-.25-.667-.134-1.3-.267-1.9-.4l-7.3-2.15c-.6-.133-1.217-.25-1.85-.35-.633-.1-1.25-.15-1.85-.15l-.975-.074-2.825-.226-.25-.05h-.25l-1.45-.3-1.8-.7c-.6-.233-1.183-.417-1.75-.55-.267-.066-.517-.101-.75-.101-.333 0-.667.067-1 .2-.167.033-.316.117-.45.25-.167.101-.3.233-.4.4-.133.133-.267.283-.4.45l-.3.399-.4.4-.6.3-.35.1c-.333.067-.65.117-.95.15l-1.95.05c-.3 0-.6.033-.9.101-.233.033-.434.083-.6.149-.167.033-.333.117-.5.25-.167.101-.333.217-.5.351-.167.1-.3.233-.4.399-.12.12-.229.271-.325.45l-.025.05-.35.5c-.133.267-.267.55-.4.851l-.75 1.75c-.133.3-.283.583-.45.85-.133.2-.283.384-.45.55-.2.134-.383.267-.55.4-.2.1-.417.184-.65.25l-.65.1h-.1c-.2-.033-.383-.05-.55-.05l-.5-.1-.2.899-.2.4-.05.149c-.033.101-.083.2-.15.301l-.2.199-.15.25-.15.15-.2.15-.2.1-.15.15-.85.3-.3.05h-.25l-.2.05-.95-.05-5.75-1.2h-.19999999999999998l-.2-.05h-1.2l-.05.2-.1.25c-.033.1-.083.184-.15.25-.133.233-.283.45-.45.649-.167.2-.35.4-.55.601-.2.2-.4.383-.6.55-.433.333-.867.65-1.3.95-.467.3-.934.583-1.4.85-.466.233-.95.467-1.45.7-.5.2-.983.4-1.45.6l-1.55.5-.8.2-.8.101v-.047c.533-.066 1.05-.166 1.55-.3.534-.166 1.05-.35 1.55-.55.467-.2.95-.4 1.45-.6.5-.267.983-.517 1.45-.75l1.35-.851c.433-.3.867-.616 1.3-.95.167-.166.35-.333.55-.5.2-.199.383-.399.55-.6l.25-.3.3-.5.1-.4.1-.149v-.05l.3-.05h.2l.2-.05h.2l.25.05h.4l.2.05.225.025.625.075 4.1.899.8.101h1.1l.55-.1.35-.1.4-.15.3-.199.3-.301.3-.399c.067-.066.117-.15.15-.25l.05-.15.1-.2.3-1.199.05-.101 1.3.101h.1c.167 0 .35-.034.55-.101.3-.066.567-.184.8-.35.233-.2.433-.417.6-.65.133-.267.284-.533.45-.8l.7-1.75.4-.9.15-.25c.096-.141.196-.274.3-.399.133-.233.3-.45.5-.65.167-.2.367-.383.6-.55.2-.167.434-.283.7-.35.233-.134.483-.217.75-.25.333-.067.667-.101 1-.101l1.9-.05c.3-.033.6-.083.9-.15.567-.133 1-.466 1.3-1l.3-.399c.1-.134.217-.267.35-.4.066-.1.15-.184.25-.25l.3-.2.35-.1c.2-.1.417-.167.65-.2l1.35.05c.3.067.617.167.95.301l2.7.899.2.101.7.149 4.7.351c.413 0 .83.024 1.25.074.213.016.429.041.65.075.633.066 1.267.184 1.9.351l1.85.449c.633.167 1.25.351 1.85.551l3.65 1c.6.166 1.217.3 1.85.399.6.101 1.217.184 1.85.25l.4.025.05-.125c.133-.4.3-.816.5-1.25.233-.467.517-.934.85-1.4.333-.467.75-.934 1.25-1.399.434-.467.95-.9 1.55-1.301.3-.199.617-.399.95-.6.3-.2.633-.384 1-.55l3.45-1.45 11.35-2.8 6.149-2.351.351-.25.399-.199.7-.45 1.5-1c.467-.334.934-.7 1.4-1.101l5.7-4.949c.5-.434 1.017-.851 1.55-1.25.533-.4 1.066-.784 1.6-1.15l.601-.45 1.25-.7 1.5-.6 4.55-1.05c.6-.167 1.217-.351 1.85-.55.601-.233 1.2-.5 1.8-.801.601-.333 1.184-.666 1.75-1 .601-.366 1.184-.75 1.75-1.149l4.15-2.875-10.9 2.825c-2.433.666-4.649 1.633-6.649 2.899l-9.101 5-8.699 3.351-6.4 1.949c-.4.101-.8.184-1.2.25l-2.3.25c-.367.034-.717.084-1.05.15-.367.033-.7.1-1 .2-.667.2-1.267.434-1.8.7-.3.133-.55.283-.75.449-.233.167-.45.351-.65.551l-1.15 1c-.139.139-.281.264-.425.375l-.275.225c-.233.167-.467.3-.7.4-.233.1-.467.183-.7.25l-.6.1h-.15c.033-.066.083-.1.15-.1l.6-.101c.3-.066.633-.2 1-.399.333-.233.667-.517 1-.851l1.1-1.05c.107-.108.224-.208.349-.3zm56.75-27.8c.133-.233.3-.434.5-.601.18-.18.371-.329.575-.45-.491.024-.982.058-1.476.101-.527.044-1.044.094-1.55.149l.25 2.2c.033.467.05.934.05 1.4v1.1l-.2 1.05-.3 1.101-.399.925 1.25-.875.25-2.65c.033-.466.1-.916.199-1.35.034-.233.084-.467.15-.7.066-.233.167-.467.3-.7.101-.234.234-.466.401-.7zm-1.65 9.35l-10.2 6.55c-.433.233-.866.45-1.3.65l-2.05.85c-.333.134-.684.25-1.05.351-.334.066-.684.149-1.05.25l-4 .75c-.301.066-.601.149-.9.25-.3.1-.583.199-.85.3-.567.233-1.101.55-1.601.95-.566.366-1.116.733-1.649 1.1l-7.351 5.9c-.533.366-1.05.733-1.55 1.1-.5.333-1.017.65-1.55.95l-.75.5-3.65 1.649-13.8 3.101c-.867.233-1.683.5-2.45.8-.767.267-1.5.566-2.2.9-1.4.633-2.567 1.383-3.5 2.25-.467.433-.867.866-1.2 1.3-.367.434-.667.883-.9 1.35-.233.4-.417.8-.55 1.2l-.025.075c.205.017.414.024.625.024l25.101-2.949 11.05-2.45.8-.351c.233-.133.483-.267.75-.399l.7-.5c.233-.2.434-.4.6-.601.334-.466.65-.966.95-1.5l2.45-6.149.45-.9c.166-.3.35-.583.55-.85.166-.3.366-.584.6-.851.3-.366.634-.683 1-.949.334-.301.7-.567 1.101-.801.399-.267.816-.483 1.25-.649.399-.167.816-.316 1.25-.45.399-.167.816-.3 1.25-.4l3.649-.899c.4-.101.783-.217 1.15-.351.566-.233 1.1-.483 1.6-.75.5-.3.983-.633 1.45-1l1.3-1.3 1.2-1.399c.4-.467.767-.95 1.1-1.45.334-.5.65-1.017.95-1.55l.5-1.051c.134-.399.267-.783.4-1.149.1-.367.2-.75.3-1.15l.05-.302zm-65.75 82.15v.7l.25 1.9-.05.05-2.55-.95h-.2l-.15-.05h-.15l-.15-.05h-.15l-1.35.15c-.233.033-.45.1-.65.199l-1.55.551-12.35 7.35-7.4 5.2c-1.333 1-2.667 2.033-4 3.1-1.333 1-2.65 2.033-3.95 3.101-1.3 1.033-2.583 2.083-3.85 3.149-1.3 1.033-2.566 2.084-3.8 3.15-1.234 1.066-2.467 2.149-3.7 3.25-1.233 1.066-2.45 2.133-3.65 3.2l-10.15 9 11.6-2.351 3.9-1.25c.3-.166.617-.316.95-.45l.9-.5c.633-.366 1.25-.75 1.85-1.149l1.8-1.3 3.6-2.851c.566-.5 1.167-.983 1.8-1.45l1.95-1.399c.633-.5 1.283-.967 1.95-1.4.7-.434 1.417-.85 2.15-1.25l4.2-2.7 26.85-20.199c.4-.267.817-.517 1.25-.75l1.2-.75c.4-.233.816-.467 1.25-.7l14.45-7.275c-1.151.062-2.301.154-3.45.275-1.3.133-2.567.3-3.8.5l-.95.1-8.9 2.075v.474l-.05.051-.95-.15-.175-.025-3.725 1.075-.1.349zm26.25-5.65c1.02-.033 2.037-.05 3.05-.05l.801.05c1.267 0 2.533.017 3.8.05s2.533.101 3.8.2c1.233.066 2.483.15 3.75.25s2.517.217 3.75.35l3.95.65h.024l1.176-.25 1.3-.3c.399-.134.816-.283 1.25-.45.399-.167.8-.366 1.2-.6.366-.233.733-.5 1.1-.801.366-.3.7-.633 1-1 .167-.267.35-.533.55-.8l1-1.7c.267-.466.55-.916.851-1.35.267-.467.583-.9.949-1.3.165-.214.34-.422.525-.625-1.349.095-2.69.203-4.025.325-1.866.166-3.716.366-5.55.6l-11.151 2.101-10.801 3.65c-.433.134-.866.3-1.3.5l-.999.5z" fill="#020202" fill-rule="evenodd"/><path d="M160.275 147.675c-.796.21-1.572.435-2.325.675-1.767.5-3.533.833-5.3 1-1.8.166-3.583.283-5.35.35-1.8.033-3.6.15-5.4.351-.24.026-.482.06-.725.1m-15.4 7.049c-.562.422-1.103.855-1.625 1.3-.9.767-1.717 1.551-2.45 2.351-1 1.1-1.833 2.416-2.5 3.95-.7 1.533-1.316 3.1-1.85 4.699-.566 1.601-1.133 3.084-1.7 4.45-.6 1.334-1.3 2.4-2.1 3.2m81.425-52.55c1.238-1.328 2.597-2.595 4.075-3.8 1.767-1.434 3.75-2.817 5.95-4.15 2.166-1.366 4.399-2.717 6.7-4.05 2.233-1.367 4.35-2.783 6.35-4.25 1.967-1.467 3.634-3.033 5-4.7 1.5-1.9 2.967-3.634 4.4-5.2 1.399-1.6 2.85-3.066 4.35-4.399 1.5-1.334 3.15-2.584 4.95-3.75 1.767-1.167 3.75-2.301 5.95-3.4 2.166-1.066 4.35-2.116 6.55-3.15 2.2-1.033 4.35-2.166 6.45-3.399 2.1-1.267 4.033-2.717 5.8-4.351 1.218-1.148 2.317-2.432 3.3-3.85m-71 53.749l-.5.6c-1.7 2-3.333 4-4.9 6-.848 1.06-1.731 2.093-2.65 3.101m-45.2 14.649c-1.339.225-2.672.574-4 1.051-1 .333-2.033.767-3.1 1.3-1.066.5-2.15 1.066-3.25 1.7-1.066.6-2.117 1.267-3.15 2-.351.237-.693.479-1.025.725m36.525-9.901l.05-.024c1.6-.4 3.217-.783 4.85-1.15 1.633-.366 3.217-.8 4.75-1.3s2.983-1.083 4.35-1.75c2.533-1.366 4.75-2.934 6.65-4.7.263-.254.521-.512.775-.774" stroke="#000" stroke-miterlimit="10" fill="none"/></g><path d="M341.899 106.6c3.233 1.666 5.667 2.717 7.301 3.149l2.6.65c.434.1.917.217 1.45.35.3.134.45.4.45.801 0 .199-.067.449-.2.75-.167.366-.384.55-.65.55-.333 0-.5-.134-.5-.4 0-.133.101-.283.3-.45.167-.166.25-.3.25-.399 0-.101-.699-.316-2.1-.65-1.667-.399-2.634-.649-2.9-.75-1.866-.7-4.133-1.733-6.8-3.1-1.899-1-4.166-2.033-6.8-3.101-2.934-1.199-5.45-2.083-7.55-2.649h-3.101c-.233-.101-.35-.233-.35-.4 0-.2.134-.333.4-.399h3.1c2.134.6 4.75 1.533 7.85 2.8 3 1.198 5.417 2.281 7.25 3.248zm-16-51.15c0-1.633.467-2.883 1.4-3.75.967-.866 1.566-.3 1.8 1.7 0 1 .134 2.05.4 3.15.267 1.133.399 1.983.399 2.55 0 .366-.133.717-.399 1.05-.3.366-.7.55-1.2.55-1.233 0-2-.85-2.3-2.55l-.1-2.7z" fill="#020202" fill-rule="evenodd"/></svg>