<svg xmlns="http://www.w3.org/2000/svg" viewBox="0 0 120.78 120.78">
  <title>GitHub-Mark</title>
  <g>
    <path d="M60.39,1.49A60.39,60.39,0,0,0,41.3,119.18c3,0.56,4.13-1.31,4.13-2.91,0-1.44-.06-6.2-0.08-11.24C28.54,108.69,25,97.91,25,97.91c-2.75-7-6.7-8.84-6.7-8.84-5.48-3.75.41-3.67,0.41-3.67C24.77,85.83,28,91.63,28,91.63c5.39,9.23,14.13,6.56,17.57,5,0.54-3.9,2.11-6.57,3.83-8.08C36,87,21.85,81.87,21.85,58.73a23.37,23.37,0,0,1,6.22-16.21c-0.63-1.52-2.69-7.66.58-16,0,0,5.07-1.62,16.61,6.19a57.26,57.26,0,0,1,30.24,0C87,24.91,92.11,26.54,92.11,26.54c3.29,8.32,1.22,14.46.59,16a23.32,23.32,0,0,1,6.21,16.21c0,23.19-14.13,28.3-27.57,29.8,2.17,1.87,4.1,5.55,4.1,11.18,0,8.08-.07,14.58-0.07,16.57,0,1.61,1.09,3.49,4.15,2.9A60.4,60.4,0,0,0,60.39,1.49Z" fill="#191717" fill-rule="evenodd"/>
    <path d="M22.87,88.2a0.93,0.93,0,0,1-1.58-.72,0.76,0.76,0,0,1,1-.19,0.76,0.76,0,0,1,.54.91h0Zm-0.74-.55" fill="#191717"/>
    <path d="M25.32,90.92a1.11,1.11,0,0,1-1.41-1.53,0.94,0.94,0,0,1,1.24.28,0.91,0.91,0,0,1,.17,1.25h0Zm-0.58-.62" fill="#191717"/>
    <path d="M27.7,94.4a1.07,1.07,0,0,1-1.35-.52,1,1,0,0,1,0-1.44,1.27,1.27,0,0,1,1.34,2h0Zm0,0" fill="#191717"/>
    <path d="M31,97.76a1.13,1.13,0,0,1-1.55-.23A1.16,1.16,0,0,1,29.07,96a1.15,1.15,0,0,1,1.56.23A1.14,1.14,0,0,1,31,97.76h0Zm0,0" fill="#191717"/>
    <path d="M35.46,99.71A1.4,1.4,0,0,1,33,99a1.4,1.4,0,0,1,2.5.75h0Zm0,0" fill="#191717"/>
    <path d="M40.4,100.08a1.39,1.39,0,0,1-2.6,0,1.16,1.16,0,0,1,1.29-.92,1.14,1.14,0,0,1,1.31.88h0Zm0,0" fill="#191717"/>
    <path d="M45,99.29a1.39,1.39,0,1,1-1.44-.66,1.17,1.17,0,0,1,1.44.66h0Zm0,0" fill="#191717"/>
  </g>
</svg>
