<?xml version="1.0" encoding="utf-8"?>
<svg version="1.1" id="helmet" xmlns="http://www.w3.org/2000/svg" xmlns:xlink="http://www.w3.org/1999/xlink" x="0px" y="0px"
	 viewBox="0 0 281.7 321.4" enable-background="new 0 0 281.7 321.4" xml:space="preserve">
<g>
	<path fill="#84919A" d="M144.5,4c71.7,0,129.8,49.2,129.8,109.8v90.3c0,0,3.3,3.3,3.3,11.9v12.5c0,10.9-7.9,21.1-21.4,29.6v17.3
		c-13.1,24.2-58.2,42-111.8,42c-53.6,0-98.7-17.8-111.8-42v-17.3c-12.8-8-20.5-17.6-21.3-27.8c-4.8-7-7.4-14.6-7.4-22.6
		c0-9.7,3.8-18.8,10.7-26.9v-67.1C14.7,53.2,72.8,4,144.5,4 M144.5,0c-35.6,0-69.1,11.8-94.4,33.1c-25.4,21.5-39.4,50.2-39.4,80.7
		v65.6C3.7,188.2,0,197.9,0,207.8c0,8.3,2.5,16.4,7.5,24c1.3,10.3,8.6,20.1,21.2,28.6v15.1v1l0.5,0.9c6.9,12.8,21.7,23.9,42.8,31.9
		c20.9,8,46,12.2,72.5,12.2c26.5,0,51.6-4.2,72.5-12.2c21-8,35.8-19.1,42.8-31.9l0.5-0.9v-1v-15.1c14-9.3,21.4-20.3,21.4-31.8V216
		c0-7-2-11.2-3.3-13.3v-88.9c0-30.5-14-59.2-39.4-80.7C213.6,11.8,180.1,0,144.5,0L144.5,0z"/>
</g>
<path fill="none" stroke="#84919A" stroke-miterlimit="10" d="M274.5,109.5c0-50.7-58.2-91.8-130-91.8c-71.8,0-130,41.1-130,91.8
	c0,0.3,0,0.7,0,1h0v80.8c0,9.6,58.2,17.3,130,17.3c71.8,0,130-7.8,130-17.3v-80.8h0C274.5,110.2,274.5,109.8,274.5,109.5z"/>
<g>
	<path fill="none" stroke="#84919A" stroke-miterlimit="10" d="M161.8,253.8c1.2-1.1,2.2-2.4,3-3.8v-17.3c-0.8-1.4-1.8-2.7-3-3.8
		V253.8z"/>
	<path fill="none" stroke="#84919A" stroke-miterlimit="10" d="M156.6,257.5c1.1-0.5,2.1-1.1,3-1.8V227c-0.9-0.7-1.9-1.3-3-1.8
		V257.5z"/>
	<path fill="none" stroke="#84919A" stroke-miterlimit="10" d="M150.6,259.4c1-0.2,2-0.4,3-0.7V224c-1-0.3-2-0.5-3-0.7V259.4z"/>
	<path fill="none" stroke="#84919A" stroke-miterlimit="10" d="M140.8,258.7c1,0.3,2,0.5,3,0.7v-36c-1,0.2-2,0.4-3,0.7V258.7z"/>
	<path fill="none" stroke="#84919A" stroke-miterlimit="10" d="M135.6,256.3c0.9,0.6,1.9,1.2,3,1.6v-33c-1.1,0.5-2.1,1-3,1.6V256.3z
		"/>
	<path fill="none" stroke="#84919A" stroke-miterlimit="10" d="M129.6,250c0.8,1.4,1.8,2.7,3,3.8v-24.9c-1.2,1.1-2.2,2.4-3,3.8V250z
		"/>
</g>
<g>
	<path fill="none" stroke="#84919A" stroke-miterlimit="10" d="M32.3,258.5c23.7,15,65.4,24.9,112.2,24.9
		c46.8,0,88.5-9.9,112.3-24.9"/>
</g>
<path fill="none" stroke="#84919A" stroke-miterlimit="10" d="M14.7,195.1c0,0,5.9,18.9,132.3,18.9c111,0,127.8-18.9,127.8-18.9"/>
<circle fill="none" stroke="#84919A" stroke-miterlimit="10" cx="195.3" cy="237.7" r="6"/>
<circle fill="none" stroke="#84919A" stroke-miterlimit="10" cx="214.1" cy="233.7" r="5.4"/>
<circle fill="none" stroke="#84919A" stroke-miterlimit="10" cx="238.7" cy="225.2" r="4"/>
<path fill="#DBBFBD" stroke="#84919A" stroke-miterlimit="10" d="M83.4,225.7c-5,0-9.6,1.3-13.7,3.6c0,0,0.1,0,0.1,0
	c-2.1,1.6-9.3,7.6-2.6,9c4.4,1,11.7,1.4,17.2,1.5c-2.5,4.3-3.9,9.2-3.9,14.5c0,2.4,0.3,4.7,0.8,6.9c10.8,2.2,20.8,3.5,28.2,4.2
	c1.4-3.4,2.2-7.2,2.2-11.1C111.8,238.5,99.1,225.7,83.4,225.7z"/>
<path fill="none" stroke="#84919A" stroke-width="2" stroke-miterlimit="10" d="M84.4,239.9c-5.5-0.2-12.8-0.6-17.2-1.5
	c-6.6-1.4,0.5-7.4,2.6-9c-25.3-6.2-45.4-18.5-55.2-34l-0.9-14.5C6.9,189,4,198.1,4,207.8c0,28.7,33.9,52.6,79.1,58.6
	c-1.6-3.6-2.6-7.7-2.6-11.9C80.5,249.1,81.9,244.1,84.4,239.9z"/>
<path fill="none" stroke="#84919A" stroke-miterlimit="10" d="M28.8,210.4c0,0-15.3,4.4-14.3,24"/>
<path fill="none" stroke="#84919A" stroke-miterlimit="10" d="M35.5,215.2c0,0-14.3,5.5-13.6,26.7"/>
<path fill="none" stroke="#84919A" stroke-miterlimit="10" d="M43.5,219.7c0,0-16.2,9.5-11.3,29.6"/>
<path fill="none" stroke="#84919A" stroke-miterlimit="10" d="M52.1,223.6c0,0-16,10.9-7.9,32.1"/>
<path fill="none" stroke="#84919A" stroke-miterlimit="10" d="M61.4,226.9c0,0-16,12.7-6.8,32.8"/>
<path fill="none" stroke="#84919A" stroke-miterlimit="10" d="M23.7,206.1c0,0-14.8,1.7-15.5,18.8"/>
<path fill="none" stroke="#84919A" stroke-miterlimit="10" d="M67.3,238.3c0,0-6.9,9.6-1.5,24.7"/>
<path fill="none" stroke="#84919A" stroke-miterlimit="10" d="M79.1,239.6c0,0-7.9,12.1-1.4,25.7"/>
<path fill="none" stroke="#84919A" stroke-miterlimit="10" d="M18.8,200.9c0,0-12.3-1-14.2,13.1"/>
<path fill="none" stroke="#84919A" stroke-miterlimit="10" d="M14.7,196.3c0,0-8-1.5-10.1,6.2"/>
<path fill="none" stroke="#84919A" stroke-miterlimit="10" d="M14.7,191.2c0,0-4.2-1.6-8,2.7"/>
<path fill="none" stroke="#84919A" stroke-miterlimit="10" d="M266.3,197.4v-76.9h0c0-0.3,0-0.7,0-1c0-50.7-53.6-91.8-119.8-91.8
	c-66.1,0-119.8,41.1-119.8,91.8c0,0.3,0,0.7,0,1h0v78.2"/>
<path fill="none" stroke="#84919A" stroke-miterlimit="10" d="M81.4,261.4c16.5,3.5,37.2,5.6,63.1,5.6
	c140.5,0,130.3-62.9,130.3-62.9"/>
<path fill="none" stroke="#84919A" stroke-miterlimit="10" d="M83.4,266.4c16.5,3.5,37.2,5.6,63.1,5.6
	c140.5,0,130.3-62.9,130.3-62.9"/>
<path fill="none" stroke="#84919A" stroke-miterlimit="10" d="M14.5,191.3c0,9.6,58.2,17.3,130,17.3c71.8,0,130-7.8,130-17.3"/>
<path fill="#84919A" stroke="#84919A" stroke-miterlimit="10" d="M242.2,126.5c0-23.4-14.3-44.2-36.6-57.7
	c4.5-7.7,7.1-16.4,7.4-25.6c-19-9.8-41.9-15.5-66.6-15.5c-27.1,0-52,6.9-72.1,18.5c0.8,9.1,3.9,17.7,8.8,25.2
	c-19.9,13.4-32.5,33.1-32.5,55.1c0,0.3,0,0.6,0,0.8h0v77c23.7,3.3,56.9,5.3,93.7,5.3c39,0,73.9-2.3,97.7-5.9v-76.5h0
	C242.2,127,242.2,126.7,242.2,126.5z M178.9,143.7c0,0-0.7-18-7.7-41c0,0,16.3-7,26.7-12.7c0,0,16.3,23.7,19.7,45.7
	C217.6,135.7,201.6,142.7,178.9,143.7z"/>
</svg>
