<svg xmlns="http://www.w3.org/2000/svg" viewBox="0 0 300 400">
  <title>Future Friendly</title>
  <path d="M153.63,44C225,44,282.83,93,282.83,153.27v89.88s3.28,3.28,3.28,11.84v12.44c0,10.85-7.86,21-21.3,29.46v17.22c-13,24.09-57.93,41.8-111.28,41.8S55.29,338.2,42.26,314.12V296.9c-12.74-8-20.4-17.52-21.2-27.67a39.4,39.4,0,0,1-7.37-22.49c0-9.65,3.78-18.71,10.65-26.77V153.17C24.44,93,82.27,44,153.63,44m0-4c-35.43,0-68.78,11.74-94,32.95-25.28,21.4-39.22,50-39.22,80.32v65.29c-7,8.76-10.65,18.41-10.65,28.27a43,43,0,0,0,7.47,23.89c1.29,10.25,8.56,20,21.1,28.47v16l.5.9c6.87,12.74,21.6,23.79,42.6,31.75,20.8,8,45.79,12.14,72.16,12.14s51.36-4.18,72.16-12.14,35.63-19,42.6-31.75l.5-.9v-16c13.93-9.26,21.3-20.21,21.3-31.65V255c0-7-2-11.15-3.28-13.24V153.27c0-30.36-13.93-58.92-39.22-80.32C222.41,51.74,189.07,40,153.63,40Z" fill="#49535a"/>
  <path d="M283,149c0-50.46-57.93-91.37-129.39-91.37S24.24,98.53,24.24,149v1h0v80.42c0,9.56,57.93,17.22,129.39,17.22S283,239.86,283,230.41V150h0Z" fill="none" stroke="#49535a" stroke-miterlimit="10"/>
  <g>
    <path d="M170.85,292.62a15.65,15.65,0,0,0,3-3.78V271.61a15.65,15.65,0,0,0-3-3.78Z" fill="none" stroke="#49535a" stroke-miterlimit="10"/>
    <path d="M165.68,296.3a14.85,14.85,0,0,0,3-1.79V265.94a14.85,14.85,0,0,0-3-1.79Z" fill="none" stroke="#49535a" stroke-miterlimit="10"/>
    <path d="M159.7,298.19c1-.2,2-.4,3-.7V263c-1-.3-2-.5-3-.7Z" fill="none" stroke="#49535a" stroke-miterlimit="10"/>
    <path d="M150,297.49c1,.3,2,.5,3,.7V262.36c-1,.2-2,.4-3,.7Z" fill="none" stroke="#49535a" stroke-miterlimit="10"/>
    <path d="M144.77,295.1a14.22,14.22,0,0,0,3,1.59V263.85a21,21,0,0,0-3,1.59Z" fill="none" stroke="#49535a" stroke-miterlimit="10"/>
    <path d="M138.8,288.83a15.65,15.65,0,0,0,3,3.78V267.83a15.65,15.65,0,0,0-3,3.78Z" fill="none" stroke="#49535a" stroke-miterlimit="10"/>
  </g>
  <path d="M42,297.29c23.59,14.93,65.09,24.78,111.68,24.78s88.09-9.85,111.78-24.78" fill="none" stroke="#49535a" stroke-miterlimit="10"/>
  <path d="M24.44,234.19S30.31,253,156.12,253c110.48,0,127.2-18.81,127.2-18.81" fill="none" stroke="#49535a" stroke-miterlimit="10"/>
  <circle cx="204.2" cy="276.59" r="5.97" fill="none" stroke="#49535a" stroke-miterlimit="10"/>
  <circle cx="222.91" cy="272.61" r="5.37" fill="none" stroke="#49535a" stroke-miterlimit="10"/>
  <circle cx="247.39" cy="264.15" r="3.98" fill="none" stroke="#49535a" stroke-miterlimit="10"/>
  <path d="M92.82,264.65a27.59,27.59,0,0,0-13.64,3.58h.1c-2.09,1.59-9.26,7.56-2.59,9,4.38,1,11.65,1.39,17.12,1.49a28.47,28.47,0,0,0-3.88,14.43,30.89,30.89,0,0,0,.8,6.87,272.17,272.17,0,0,0,28.07,4.18,29.16,29.16,0,0,0,2.19-11A28.21,28.21,0,0,0,92.82,264.65Z" fill="#cc3d33" stroke="#49535a" stroke-miterlimit="10"/>
  <path d="M93.81,278.78c-5.47-.2-12.74-.6-17.12-1.49-6.57-1.39.5-7.37,2.59-9-25.18-6.17-45.19-18.41-54.94-33.84l-.9-14.43a40.37,40.37,0,0,0-9.65,26.77c0,28.57,33.74,52.35,78.73,58.33a29.42,29.42,0,0,1-2.59-11.84A28.3,28.3,0,0,1,93.81,278.78Z" fill="none" stroke="#49535a" stroke-miterlimit="10" stroke-width="2"/>
  <path d="M38.47,249.42s-15.23,4.38-14.23,23.89" fill="none" stroke="#49535a" stroke-miterlimit="10"/>
  <path d="M45.14,254.2s-14.23,5.47-13.54,26.58" fill="none" stroke="#49535a" stroke-miterlimit="10"/>
  <path d="M53.1,258.67a26.71,26.71,0,0,0-11.25,29.46" fill="none" stroke="#49535a" stroke-miterlimit="10"/>
  <path d="M61.66,262.56s-15.93,10.85-7.86,32" fill="none" stroke="#49535a" stroke-miterlimit="10"/>
  <path d="M70.92,265.84S55,278.48,64.15,298.49" fill="none" stroke="#49535a" stroke-miterlimit="10"/>
  <path d="M33.4,245.14S18.67,246.83,18,263.85" fill="none" stroke="#49535a" stroke-miterlimit="10"/>
  <path d="M76.79,277.19s-6.87,9.56-1.49,24.58" fill="none" stroke="#49535a" stroke-miterlimit="10"/>
  <path d="M88.54,278.48s-7.86,12-1.39,25.58" fill="none" stroke="#49535a" stroke-miterlimit="10"/>
  <path d="M28.52,240s-12.24-1-14.13,13" fill="none" stroke="#49535a" stroke-miterlimit="10"/>
  <path d="M24.44,235.38s-8-1.49-10.05,6.17" fill="none" stroke="#49535a" stroke-miterlimit="10"/>
  <path d="M24.44,230.31s-4.18-1.59-8,2.69" fill="none" stroke="#49535a" stroke-miterlimit="10"/>
  <path d="M274.86,236.48V159.94h0v-1c0-50.46-53.35-91.37-119.24-91.37S36.38,108.48,36.38,158.94v1h0v77.84" fill="none" stroke="#49535a" stroke-miterlimit="10"/>
  <path d="M90.83,300.18c16.42,3.48,37,5.57,62.81,5.57,139.84,0,129.69-62.61,129.69-62.61" fill="none" stroke="#49535a" stroke-miterlimit="10"/>
  <path d="M92.82,305.16c16.42,3.48,37,5.57,62.81,5.57,139.84,0,129.69-62.61,129.69-62.61" fill="none" stroke="#49535a" stroke-miterlimit="10"/>
  <path d="M24.24,230.41c0,9.56,57.93,17.22,129.39,17.22S283,239.86,283,230.41" fill="none" stroke="#49535a" stroke-miterlimit="10"/>
  <path d="M250.88,165.91c0-23.29-14.23-44-36.43-57.43A53.76,53.76,0,0,0,221.81,83c-18.91-9.75-41.7-15.43-66.29-15.43-27,0-51.76,6.87-71.76,18.41a54.56,54.56,0,0,0,8.76,25.08C72.71,124.4,60.17,144,60.17,165.91v.8h0v76.64c23.59,3.28,56.63,5.28,93.26,5.28,38.82,0,73.56-2.29,97.24-5.87V166.61h0A1,1,0,0,0,250.88,165.91Zm-63,17.12a179.43,179.43,0,0,0-7.66-40.81s16.22-7,26.58-12.64c0,0,16.22,23.59,19.61,45.49C226.39,175.07,210.47,182,187.87,183Z" fill="#49535a" stroke="#49535a" stroke-miterlimit="10"/>
</svg>
