<?xml version="1.0" encoding="utf-8"?>
<svg version="1.1" id="Layer_1" xmlns="http://www.w3.org/2000/svg" xmlns:xlink="http://www.w3.org/1999/xlink" x="0px" y="0px"
	 viewBox="0 0 432 288" enable-background="new 0 0 432 288" xml:space="preserve">
<path fill="#006325" d="M388.5,234.6c0,0-6.5,9.1-17.1,18.3c-9.8,8.6-11,14-14.9,34.9c-5.2,27.7,7.7,76.6,12.4,89.6h-60
	c0,0,17.7-62.5,8.4-104.8c-6.6-30.2-32.4-41.9-32.4-41.9l39-35.2c0,0-4.6,19.8-3.7,27.3c1.2,9.9,3.6,13.3,9.1,12.9
	c3.7-0.5,5.1-4.9,5.3-9.5c0.6-10.1-4.4-25.7-3.8-33.4l12.2,8.1l24,17.6c0,0-6.8,9.8-11.5,14.4c-4.1,4-5.1,11-2.9,13.7
	c2.2,2.7,8.5-0.6,12.9-7.2c4.4-6.6,6.6-12.1,6.6-12.1L388.5,234.6z M294.2,221.6c0,0,12.4,16.4,16.3,12.3c3.5-3.8-3-9.7-4.2-15.2
	C305,213.2,294.2,221.6,294.2,221.6z M349.1,201.4c0,0-6.5,21.9-0.3,24.5c5.7,2.4,14.4-21.3,14.4-21.3L349.1,201.4z"/>
<path fill="#77A179" d="M240,241.2c6.3,2.4,8-2,9.7-5c4.3-7.5,12.6-0.7,13-4.1c1.5-12.2,16.2-1.7,13.6-12.9
	c-1.2-5.1-8.5-3.5-8.2-7.3c0.4-6,10.9-4.4,7.6-12.4c-2.4-6-5.9-6.4-2.6-15.3c3.4-8.9,16.3-4.7,23.6-1.6c4.9,2.1,9.2,4.8,10.6,0.8
	c2.5-7.2,8.7,1.6,12.6-6.5c1.1-2.4-4.6-5-4-10.4c0.5-4.7-4.8-4.8-12.2-7.8c-3-1.3-5.7-7.9-1.5-13.8c4.1-5.7,3.5-6.1,15.9-7.3
	c7.5-0.7,9.3,11.9,14.4,11.5c9.5-0.8,8.2,7.8,15.7,8.3c6.4,0.4,4.8-7.4,7.8-10.1c4.4-4.1,15.8,2,14.6-3.9c-0.5-2.6-12.1-6.3-4.1-8.7
	c2-0.6-8.3-5.9-2.4-10.2c7.3-5.2,10.7,1.5,13.5-1c2.6-2.3,3.3-6.3,3-9.3c-0.6-6.5-9.4-16.9-14.3-15.6c-20,5.4-10.6-12.4-24.2-14.2
	c-3.1-0.4-5.9,4.3-11.5,5.2c-4.9,0.8-7.2-3.9-8.8-5.4c-1.5-1.5-4.5-0.8-6.3-0.8c-3.1,0-1.5-1.5-3.3-3.1c-4.9-4.6-6.6,4.8-11.4,4.7
	c-3.8-0.1-4.3-1.8-7.4-5c-4.3-5.4-4-1.6-5-2.6c2.4-5.1,6.7-1.6,11.8,1.8c8.5-13.7,17.6,0.1,25.1-2.3c5.3-1.7,5-7.7,11.2-7.9
	c4.1-0.1,7,8,13.2,7.1c5.4-0.7,7.5-4.1,12.7-0.5c-1.8-1.2,5.2-7.5,5.8-8.2c4.6-5,12.2-3.4,19.3,3.5c8.4-7.6,8.3,4.2,7,9.5
	c3.9-1.4,17,0.6,17.4,6.1c0.4,5.6,1.9,16.6,5,13.4c3.8-4,5.2-10.8,11.3-4.5c0.4,0.4,9.5,8.5,9.4,7.3c0.1,3.2-0.2,12.7,4,16.1
	c3.8,3,11-0.9,18.6-3.8c4.4-1,16.4,9.5,13.3,14.4c-1.2,1.8-1.7,7.1-0.8,9.7c1.2,3.2,5.5,1.2,7.3,2.6c4,3.1,5.4,7,4.3,12.1
	c-0.8,3.9,14.8,2.5,6.6,13.7c-7,9.7-1.8,11.6,1.4,11.5c1.7-0.1,5.9,3.8,2.8,7.6c-4.6,5.8-7.7-3.4-11,4.7c-4.3,10.8-4.2,0.7-12.7,3.9
	c-11.5,4.3,6.7,7.9,5.3,11.5c-1.2,3.1,0.2,5.9,4.1,6c2.5,0.1,7-2.8,13.6,1.5c-3.3,7.9-1.5,13.5-1.4,15.2c0.1,1.8-0.8,4.4-2,4.9
	c-3.4,1.5-0.3,4.2-5.5,3.6c-5.1-0.5-6.1,1.9-9.1,5.4c-4.7,5.5-10.2,3.9-14.2,1.6c-7.6-4.4-16.7-2.2-19.5-4.4
	c-5.2-4-2.5,9.1-12.8,6.7c-8.3-2-4-9.6-7.5-13c-2.2-2.2-12.1,3.2-15.2,8.3c-2.4,3.8-9.3,9.8-14,5.3c-2.9-2.8-3.2-8-7.1-1.8
	c-3.8,6.2-10.6-0.3-10.3-5.3c0.2-4.3-7.9-5.2-11.2-5.6c3.3-5.1-1.3-2.1-2.9-7.1c-0.7-2.4,4.7-11.9,2.6-14c-2.6-2.6-5-0.6-8-3
	c-2.6-2.1-4.7-5.3-8.6-4.3c-2.8,0.7-5,9.1-8.8,6.7c-3.9-2.4-3-4.1-7-2.2c-4.6,2.2-4.2-2.6-6.9-4.3c0.2,0.1-7.5,12.9-12.2,12.7
	c-3.4-0.2-10.2-12.5-13.6,7.9c-0.9,5.8-4-3.6-7.3,0.2c-5.9,6.9,6,9.2-7.8,10.7c-0.1,0-19.4,9.5-24.3,2.9c-0.1-3-0.5,5.1-12.5,7.8
	c0.3-0.7-6.2-2-5.9-2.7"/>
<path fill="none" stroke="#006325" stroke-width="5" d="M329.6,212.6c-3.1,0-2.6-6.7-6.5-4.7c-3.2,1.7-2.4,7.8-6.2,10
	c-7.9,4.5-9.3-3-14.5-0.6c-5.2,2.4-2.7,14.7-3.6,14c-4.7-3.7-8.6-1.1-8.8,1.3c-0.3,3.1,0.4,9.6-9,8.2c-5.8-0.9-12,11.4-20.5-0.3
	c-4.6,2.1-11.1,10.2-16.4,7.2c-5.9-3.3-5.6-4.2-8-10.5c-1.5-4-6.4-8-10.5-6.2c-5.4,2.4-11.5-4-18.3,2.3c-6.4,6-14.7-10-9.6-17.3
	c2.8-4.1,3.3-7.6,2.4-9.7c-1.6-3.8-7-5.1-9.3-2.9c-2.7,2.4-7.1,1-9.5-3.9c-3.3-6.7,4.7-8.9,5-13.9c0.4-7.4-1.6-9.7,3.3-13.5
	c3.1-2.4-1.9-13.3,4.4-18.1c6.1-4.7,11.1-6.4,16.1-0.6c4.8-1.4,9-4.8,13-2.1c2,1.3,9.3-4.7,5.4-7.6c-2.5-1.9-6-5.9-5.4-9.6
	c1.6-11,9.2-3.8,12-9.3c6-12,17.3-12,24.4-9.6c1.8,0.6,3.1-8.8,3.3-8.8c-9.7-6.9,1.7-8.9,1.6-12c-0.2-5.9,6.1-12.9,12.1-11.1
	c5.6,1.6,8.5-5.3,13.1-7.8c5.7-3.1,8.2,9,14.6,0.7c6.4-8.3,14,4.2,21.5,1.8c5.3-1.7,5-7.9,11.2-8.1c4.1-0.1,7.9,10.8,13.2,7.3
	c6-3.9,6.6,3.3,13.3-2.8c0.2-3.9,2.3-5.8,2.9-6.6c4.6-5,11.1-8.1,18.8,3.6c9.5-4.9,13.2,4,9.8,10c3.9-1.4,17,0.6,17.4,6.1
	c0.4,5.6-1.6,10.8,2.4,12.6c4.7,2.2,7.8-10,13.9-3.8c0.4,0.4,7-1.3,8.3,7.6c-2.6,7.6,0.9,12.5,5.2,15.9c3.8,3,10.2-4.7,18.5-3.8
	c6,0.5,18.2,7.6,13.3,14.4c-1.3,1.8-1.7,7.1-0.8,9.7c1.2,3.2,5.3,0.8,8.9,3.5c4.1,3,5.3,6.9,2.7,11.1c-2.1,3.4,14.8,4.7,6.6,13.7
	c-7.1,7.8-1.8,11.5,1.4,11.3c1.7-0.1,3.3,1.7,2.8,7.8c-0.6,7.4-7.7-3.6-11,4.5c-4.3,10.8-14.3-0.5-15.5,6.3
	c-1.2,6.8,9.9,4.9,9.4,11.4c-0.3,3.3,1.5,3.1,5.4,3.2c2.5,0.1,13.8,0.6,9.5,8.3c-3,5.2,5.7,13.6-7.5,17.7c-4.9,1.5-6.1,1.9-9.1,5.4
	c-4.7,5.5-6.5,5.6-10.5,3.2c-7.7-4.4-24-9-25-7.4c-4.1,4.2,0.4,5.4-7.4,6.2c-11.3,1.1-4.8-3-7.7-8c-3.4-5.9-12.7-4.6-16,0.6
	c-2.9,4.5-5.3,10.5-11.5,10.9c-7,0.4-3.9-4.9-8.5-6c-6.6-1.6-3.9,9.5-13-1.2c-4.3-5.1-8.4-2.9-14-9.7c-5.5-6.8,8.3-16.8-2.4-19.3
	c-3.3-0.8-11.8-10.2-14.8-4.9c-2.5,4.4-5.5,7.5-9.5,3C334.2,209.4,332.4,212.7,329.6,212.6"/>
</svg>
