<?xml version="1.0" encoding="UTF-8" standalone="no"?>
<svg width="64px" height="64px" viewBox="0 0 64 64" version="1.1" xmlns="http://www.w3.org/2000/svg" xmlns:xlink="http://www.w3.org/1999/xlink">
    
    <title>safari-favicon</title>
    
    <defs></defs>
    <g id="Page-1" stroke="none" stroke-width="1" fill="none" fill-rule="evenodd">
        <g id="safari-favicon" fill="#000000">
            <g class="logo-layers">
                <path d="M32,64 C49.673112,64 64,49.673112 64,32 C64,14.326888 49.673112,0 32,0 C14.326888,0 0,14.326888 0,32 C0,49.673112 14.326888,64 32,64 Z M32,60 C47.463973,60 60,47.463973 60,32 C60,16.536027 47.463973,4 32,4 C16.536027,4 4,16.536027 4,32 C4,47.463973 16.536027,60 32,60 Z" class="logo-layer15"></path>
                <path d="M32,52 C43.045695,52 52,43.045695 52,32 C52,20.954305 43.045695,12 32,12 C20.954305,12 12,20.954305 12,32 C12,43.045695 20.954305,52 32,52 Z M32,48 C40.836556,48 48,40.836556 48,32 C48,23.163444 40.836556,16 32,16 C23.163444,16 16,23.163444 16,32 C16,40.836556 23.163444,48 32,48 Z" class="logo-layer10"></path>
                <path d="M32,56 C45.254834,56 56,45.254834 56,32 C56,18.745166 45.254834,8 32,8 C18.745166,8 8,18.745166 8,32 C8,45.254834 18.745166,56 32,56 Z M32,54 C44.1502645,54 54,44.1502645 54,32 C54,19.8497355 44.1502645,10 32,10 C19.8497355,10 10,19.8497355 10,32 C10,44.1502645 19.8497355,54 32,54 Z" class="logo-layer10"></path>
                <circle class="logo-layer1" cx="32" cy="32" r="10"></circle>
            </g>
        </g>
    </g>
</svg>