<?xml version="1.0" encoding="utf-8"?>
<svg version="1.1" class="svg-fxe2" xmlns="http://www.w3.org/2000/svg" xmlns:xlink="http://www.w3.org/1999/xlink" x="0px" y="0px" viewBox="0 0 620 368.7" enable-background="new 0 0 620 368.7" xml:space="preserve">
  <g class="camera">
    <circle class="outer_lens" fill="none" stroke="#49535A" stroke-width="8" stroke-linecap="round" stroke-linejoin="round" stroke-miterlimit="10" cx="349.8" cy="202.9" r="125.6"/>
    <path class="body" fill="none" stroke="#49535A" stroke-width="8" stroke-linecap="round" stroke-linejoin="round" stroke-miterlimit="10" d="
    M248.3,10L248.3,10c0,0,0.4,0,1,0c13.7,0,160.8,0,160.8,0h165.8c0,0,16.7,0,19.1,0c2,0.3,5.2,1.2,7,2c1.5,0.9,4,3,4,3
    s1.4,2.9,1.5,4s0.7,5,0.7,5h0l1.8,54.3v3v261.3c0,0-0.4,8.1-0.9,10.1c-0.3,1.1-2.2,3.4-3.6,4.2c-2.1,1.1-9.5,1.9-9.5,1.9H35.2
    c0,0-6.9-1.7-7.7-1.9c-1.3-0.4-3-5-3-5s-3.3-7.5-3.4-8.2c-0.1-0.7-1.3-3.2-2-4c-0.8-0.9-3.1-2.1-4-3c-1-1-2.4-3.7-3-5
    c-0.7-1.7-1.7-5.2-1.9-7c-0.1-0.5-0.1-2-0.1-2v-201c0,0-0.1-1.5,0-2c0.2-1.1,1.5-3.1,2-4c1-1.7,3.4-4.9,5-6
    c0.7-0.4,2.1-1.2,2.8-1.7c0.7-0.4,1.9-1.5,2.2-2.3c0.4-1,1-4,1-4V87.4c0,0-0.5-15.9,0-21.1c0.6-5.8,4.2-20.7,5.5-26.1
    c0.3-1.3,0.3-1.5,0.5-2c0.3-0.8,1.3-2.4,2-3c1.1-0.9,3.7-1.8,5-2c2-0.3,8,0,8,0h177.9h3c0,0,1.4,0,1.9-0.2c0.4-0.2,1.2-1.1,1.2-1.1
    c0.6-0.7,3-3.8,3-3.8s12.5-15.4,13.1-16.1C244.9,11.4,247.2,10.2,248.3,10z"/>
    <polyline class="top_line" fill="none" stroke="#49535A" stroke-width="8" stroke-linejoin="round" stroke-miterlimit="10" points="
    23.5,65.3 446.5,65.3 517.5,77.9 610.1,77.9  "/>
    <polyline class="grip" fill="none" stroke="#49535A" stroke-width="8" stroke-linecap="round" stroke-linejoin="round" stroke-miterlimit="10" points="
    12,328.6 128.7,328.6 145.5,322.9 162.3,313.9 171.9,305.8 176.9,287 178.9,268.1 178.9,215.6 156.8,170 141.7,122.4 124.7,112.5 
    22.1,112.5 12.1,115.5   "/>  
    <circle class="inner_lens" fill="none" stroke="#49535A" stroke-width="8" stroke-linecap="round" stroke-linejoin="round" stroke-miterlimit="10" cx="349.8" cy="202.9" r="77.9"/>
    <polyline class="dial_1_" fill="none" stroke="#49535A" stroke-width="8" stroke-linecap="square" stroke-linejoin="round" stroke-miterlimit="10" points="
    206.5,32.9 206.5,19.9 118.5,19.9 118.5,31.9   "/>
    <circle class="switch" fill="none" stroke="#49535A" stroke-width="8" stroke-linejoin="round" stroke-miterlimit="10" cx="515.6" cy="300.5" r="10"/>
  </g>
</svg>