<svg xmlns="http://www.w3.org/2000/svg" viewBox="-24 0 64 24">
  <title>logo-emboss-baltic</title>
  <g id="baltic">
    <path d="M5.68,21.94,20.44,10.56a11.58,11.58,0,0,1,1.69,1.25L9.27,21.74H10l12.47-9.62a12.83,12.83,0,0,0,1.67,1.22L11.64,23h.76l12.23-9.44a4.57,4.57,0,0,0,.78.34l1.55.6L14.73,24l.76,0,12-9.26c.68.26,1.45.6,2.25,1L20.18,23l.76,0,9.24-7.13.82.4A15,15,0,0,1,1.56,20.1a67.5,67.5,0,0,0,8.86-5.72L11,14c1.43-1.1,4.12-3.13,5.72-3.67a4.26,4.26,0,0,1,3.31,0l-15,11.61Z" fill="#3d3d3d"/>
    <path d="M16,1A15,15,0,0,1,31,14.9c-2.27-1.1-4.48-1.91-5.14-2.15A9.5,9.5,0,0,1,23,10.9C21.26,9.49,19.51,8,16.28,9.13c-1.79.6-4.46,2.65-6.06,3.86a4.72,4.72,0,0,0-.54.4,65.19,65.19,0,0,1-8.43,5.46A14.86,14.86,0,0,1,1,16,15,15,0,0,1,16,1Z" fill="#3d3d3d"/>
  </g>
</svg>
