<svg id="logo-black-red" xmlns="http://www.w3.org/2000/svg" xmlns:xlink="http://www.w3.org/1999/xlink" viewBox="0 0 1440 360">
  <defs>
    <clipPath id="clip-path">
      <path id="jekyll-text" d="M529.73,169.08c3.62,2.88,10.21,1.24,14.58-3.62,4.61-5.11,5.35-11.61,1.73-14.5s-10.21-1.24-14.58,3.87C526.77,159.94,526,166.2,529.73,169.08ZM519,178.56c-1,0-2.64,1.73-1.24,2.39,2,0.74,2.88,2.39,2.88,4.86-1.73,10-14.08,21.33-18.94,25.2-1.24,1.24.49,3.87,1.73,2.88a79.33,79.33,0,0,0,12.85-12.35c-7.49,16.72-22.07,38.3-27.67,45.79-21.83,30.31-55,58.15-77.83,58.15-18.2,0-33.69-12.35-37.06-30.56-0.25-2-2.88-2.39-2.39.25,4.12,25,23.31,34.59,46.53,34.59,25.45,0,55.35-18.45,71.74-37.31,26.6-30.56,43.9-65.64,39.29-85.49C527,179.54,521.91,178.31,519,178.56Zm163.57,66.38c7-1.73,12.85-5.6,12.85-11.7,0-.58-1.24-0.58-1.24,0,0,3.62-4.12,6.59-8.73,7.33-10.87,1.73-32.45-11.12-42.66-24.21,10.87,4.12,33.19-1.89,43.65-9.39,9.72-7,13.59-14.74,14.33-21.08,1.24-10.38-10.21-16.47-25.94-10.38-10.21,4.12-22.32,13.1-34.92,29.81,13.34-22.07,39.53-57.9,65.23-80.88,31.3-27.84,49.42-22.48,21.33,7-11.61,12.11-33.44,27.84-48.51,34.67-4.61,2-2.39,4.61,1,3.13,16-7,37.31-21.58,50.16-33.69,38.05-36.57,6.34-64.16-35.91-25.45-28.58,26.44-47.28,54-63.5,89.86-5.6,6.75-9.72,12.35-14.82,16.72a13,13,0,0,0-1.48,1.56c-14,12-36,28.17-49.66,28.41-9.72.25-13.84-7-12.11-16.47,2.64-14.74,18-32.2,31.05-38.3,17-7.74,26.93,7.25,4.61,19.35-8.48,4.37-18.7,6.75-22.81,6.75-4.86,0-4.37,2-.25,2.14,6.75,0.25,17.71-2.64,25-6.09,22.81-10.87,24.21-31.21-.49-32-26.93-1-59.14,22.07-58.89,50.9,0.25,13.1,10.71,20.1,25,20.1,23.8-.25,45.05-18.37,62.43-34.26,2.47-2.06,4.94-4.37,7.33-6.75-6.09,15.48-9.22,29.81-7.74,40.44,1,7.74,5.35,11.37,8.73,14.25,0.74,0.49,2.14,0,1.24-1.48-5.11-6.09-3.62-24,3.38-41.43C636.06,235.55,658.79,250.29,682.59,244.94ZM654,194.45c27.84-25,38.79-2.64,21.08,10.87-9.22,7-27.43,12.35-33.19,9l-1.24-.74a26.21,26.21,0,0,1-2-3.62A151.06,151.06,0,0,1,654,194.45ZM808.69,166.2c11.12,1.24,6.51-12.35-4.86-9-5.11,1.48-10,11.12-13.59,19.6-11.12,16.72-29.81,39.45-42.91,51.31-11.61,10-22.32,12.6-9.22-6.09,5.35-7.49,12.11-15.48,16-23.47,9.22-20.1-10.46-29.07-26.19-17-9.22,7-21.58,21.58-31.3,29.57-2.64,2.14-2,5.35.74,3.13,7.74-6.26,21.33-20.59,32.94-29.07,9.72-7.49,13.59-2.64,8,3.62-7.74,9-21.33,24.46-24.71,34.43-4.86,14.74,1,21.33,10.62,21.33,13.34,0,33.19-20.84,46.53-37.31,4.37-5.6,9.22-12.11,13.34-18.37-11.61,22.48-23.72,45.3-38.79,65.89-21.33,29.07-48,50.9-73.22,50.9-18.2,0-33.93-12.35-37.31-30.56-0.25-2-2.64-2.39-2.39.25,4.12,25,23.31,34.59,46.53,34.59,25.45,0,49.91-14.74,67.12-32.94,34.67-36.57,38.79-77.75,49.42-100.73C800.45,166.2,805.06,165.71,808.69,166.2Zm140.92-35.33c5.11-8.73,4.86-15.48-7-15.48-9,.25-25.2,6.51-32.7,12.35-1.73,1.73-1,2.64,1.24,1.73,1.48-.49,3.13-1.48,4.86-2.14,8.48-4.61,5.11,5.11,3.13,8.73-10.21,17.71-28.09,42.66-37.56,55A179.32,179.32,0,0,1,867,208.37c-9.14,8.65-27.1,24-40.69,29.07-44.15,16.47,12.11-58.64,16.72-64.65,10.46-13.1,33.69-35.83,40.69-47.19,5.11-8.73,4.86-15.48-7-15.48-9,.25-25.2,6.51-32.7,12.35-1.73,1.73-1,2.64,1.24,1.73,1.48-.49,3.13-1.48,4.86-2.14,8.48-4.61,5.11,5.11,3.13,8.73-10.21,17.71-28.09,42.66-37.56,55-7.74,10.38-17.21,20.84-24.46,26.6C788.34,214.79,790,217,793,215c2.64-1.73,6.51-5.6,10.87-10.21-8,16-14.58,38.54,6.51,41.18,18,2.47,39.37-15.9,53.12-29.49,1.48-1.48,3.21-3.13,4.94-4.94l1.24-1.24c-8,16-14.5,38.46,6.59,41.1,23.06,3.13,51.64-27.84,62.76-39.2,2.14-2.14,1.48-5.85-2.14-2.14-6.51,6.75-28.58,26.85-44.64,32.94-44.15,16.47,12.11-58.64,16.72-64.65C919.3,165,942.61,142.32,949.61,130.87Z" fill="none"/>
    </clipPath>
  </defs>
  <title>2016-03-16-jekyll-logo-reverse</title>
  <rect id="background-light" x="720" width="720" height="360" fill="#dde1e3"/>
  <rect id="background-dark" width="720" height="360" fill="#49535a"/>
  <g id="test-tube">
    <path id="tube" d="M942.94,321h0a33.43,33.43,0,0,1-32.29-42.25l-0.16-.08,1.07-2.8,82.2-213.48c1.24-3.13.66-10.71,0.08-14.82a6.39,6.39,0,0,1,.08-2.8l0.08-.16c0.08-.16.08-0.33,0.16-0.49,1.32-3.46,5.35-5.19,11.94-5.19,7.91,0,18.78,2.47,30,6.75,9.39,3.62,17.87,8.15,23.88,12.68,7.08,5.35,9.88,10.13,8.32,14.25l-0.25.49-0.08.16a5.94,5.94,0,0,1-1.73,2.06c-3.62,3.21-9,8.65-9.88,11.12L973.16,302.76l-0.16-.08A33.89,33.89,0,0,1,942.94,321Zm-25.7-43.73-0.25.58a27.77,27.77,0,0,0,16,35.5,27.69,27.69,0,0,0,35.58-15.65l0.33-.74,81.78-212.66c1.73-4.61,9.88-11.94,11.53-13.42l0.16-.16a0.35,0.35,0,0,0,.25-0.25l0.08-.08c0.08-.58-0.66-3.13-6.42-7.58-5.52-4.2-13.51-8.4-22.4-11.86-10.38-4-20.84-6.42-27.92-6.42-4.69,0-6.26,1-6.51,1.48v0.49c0.16,1.24,1.73,12.19-.41,17.79Z" fill="#49535a"/>
    <path id="liquid" d="M1022.41,142.07s-11.37,13.1-21.66,17.71-18,3.46-27.26,8.89a43.54,43.54,0,0,0-14,13L921.69,280c-4.12,11.12,2,24,13.26,28.41A22.07,22.07,0,0,0,963.28,296h0Zm-38.05,56.75a3.56,3.56,0,1,1-1.81,4.69A3.5,3.5,0,0,1,984.36,198.82Zm-15.15-16.14a2.38,2.38,0,1,1-1.24,3.13A2.43,2.43,0,0,1,969.21,182.68Zm-16.64,55.59a3.56,3.56,0,1,1,1.81-4.69A3.5,3.5,0,0,1,952.57,238.27Zm3.29-12.93a6.73,6.73,0,1,1,8.89,3.38A6.79,6.79,0,0,1,955.87,225.34Zm8.57,34.1a2.38,2.38,0,1,1-1.24,3.13A2.41,2.41,0,0,1,964.43,259.44Z" fill="#ab332b"/>
    <ellipse id="top" cx="1030.11" cy="60.56" rx="6.01" ry="22.82" transform="translate(603.8 1000.27) rotate(-68.96)" fill="#49535a"/>
  </g>
  <path id="jekyll-text-2" data-name="jekyll-text" d="M529.73,169.08c3.62,2.88,10.21,1.24,14.58-3.62,4.61-5.11,5.35-11.61,1.73-14.5s-10.21-1.24-14.58,3.87C526.77,159.94,526,166.2,529.73,169.08ZM519,178.56c-1,0-2.64,1.73-1.24,2.39,2,0.74,2.88,2.39,2.88,4.86-1.73,10-14.08,21.33-18.94,25.2-1.24,1.24.49,3.87,1.73,2.88a79.33,79.33,0,0,0,12.85-12.35c-7.49,16.72-22.07,38.3-27.67,45.79-21.83,30.31-55,58.15-77.83,58.15-18.2,0-33.69-12.35-37.06-30.56-0.25-2-2.88-2.39-2.39.25,4.12,25,23.31,34.59,46.53,34.59,25.45,0,55.35-18.45,71.74-37.31,26.6-30.56,43.9-65.64,39.29-85.49C527,179.54,521.91,178.31,519,178.56Zm163.57,66.38c7-1.73,12.85-5.6,12.85-11.7,0-.58-1.24-0.58-1.24,0,0,3.62-4.12,6.59-8.73,7.33-10.87,1.73-32.45-11.12-42.66-24.21,10.87,4.12,33.19-1.89,43.65-9.39,9.72-7,13.59-14.74,14.33-21.08,1.24-10.38-10.21-16.47-25.94-10.38-10.21,4.12-22.32,13.1-34.92,29.81,13.34-22.07,39.53-57.9,65.23-80.88,31.3-27.84,49.42-22.48,21.33,7-11.61,12.11-33.44,27.84-48.51,34.67-4.61,2-2.39,4.61,1,3.13,16-7,37.31-21.58,50.16-33.69,38.05-36.57,6.34-64.16-35.91-25.45-28.58,26.44-47.28,54-63.5,89.86-5.6,6.75-9.72,12.35-14.82,16.72a13,13,0,0,0-1.48,1.56c-14,12-36,28.17-49.66,28.41-9.72.25-13.84-7-12.11-16.47,2.64-14.74,18-32.2,31.05-38.3,17-7.74,26.93,7.25,4.61,19.35-8.48,4.37-18.7,6.75-22.81,6.75-4.86,0-4.37,2-.25,2.14,6.75,0.25,17.71-2.64,25-6.09,22.81-10.87,24.21-31.21-.49-32-26.93-1-59.14,22.07-58.89,50.9,0.25,13.1,10.71,20.1,25,20.1,23.8-.25,45.05-18.37,62.43-34.26,2.47-2.06,4.94-4.37,7.33-6.75-6.09,15.48-9.22,29.81-7.74,40.44,1,7.74,5.35,11.37,8.73,14.25,0.74,0.49,2.14,0,1.24-1.48-5.11-6.09-3.62-24,3.38-41.43C636.06,235.55,658.79,250.29,682.59,244.94ZM654,194.45c27.84-25,38.79-2.64,21.08,10.87-9.22,7-27.43,12.35-33.19,9l-1.24-.74a26.21,26.21,0,0,1-2-3.62A151.06,151.06,0,0,1,654,194.45ZM808.69,166.2c11.12,1.24,6.51-12.35-4.86-9-5.11,1.48-10,11.12-13.59,19.6-11.12,16.72-29.81,39.45-42.91,51.31-11.61,10-22.32,12.6-9.22-6.09,5.35-7.49,12.11-15.48,16-23.47,9.22-20.1-10.46-29.07-26.19-17-9.22,7-21.58,21.58-31.3,29.57-2.64,2.14-2,5.35.74,3.13,7.74-6.26,21.33-20.59,32.94-29.07,9.72-7.49,13.59-2.64,8,3.62-7.74,9-21.33,24.46-24.71,34.43-4.86,14.74,1,21.33,10.62,21.33,13.34,0,33.19-20.84,46.53-37.31,4.37-5.6,9.22-12.11,13.34-18.37-11.61,22.48-23.72,45.3-38.79,65.89-21.33,29.07-48,50.9-73.22,50.9-18.2,0-33.93-12.35-37.31-30.56-0.25-2-2.64-2.39-2.39.25,4.12,25,23.31,34.59,46.53,34.59,25.45,0,49.91-14.74,67.12-32.94,34.67-36.57,38.79-77.75,49.42-100.73C800.45,166.2,805.06,165.71,808.69,166.2Zm140.92-35.33c5.11-8.73,4.86-15.48-7-15.48-9,.25-25.2,6.51-32.7,12.35-1.73,1.73-1,2.64,1.24,1.73,1.48-.49,3.13-1.48,4.86-2.14,8.48-4.61,5.11,5.11,3.13,8.73-10.21,17.71-28.09,42.66-37.56,55A179.32,179.32,0,0,1,867,208.37c-9.14,8.65-27.1,24-40.69,29.07-44.15,16.47,12.11-58.64,16.72-64.65,10.46-13.1,33.69-35.83,40.69-47.19,5.11-8.73,4.86-15.48-7-15.48-9,.25-25.2,6.51-32.7,12.35-1.73,1.73-1,2.64,1.24,1.73,1.48-.49,3.13-1.48,4.86-2.14,8.48-4.61,5.11,5.11,3.13,8.73-10.21,17.71-28.09,42.66-37.56,55-7.74,10.38-17.21,20.84-24.46,26.6C788.34,214.79,790,217,793,215c2.64-1.73,6.51-5.6,10.87-10.21-8,16-14.58,38.54,6.51,41.18,18,2.47,39.37-15.9,53.12-29.49,1.48-1.48,3.21-3.13,4.94-4.94l1.24-1.24c-8,16-14.5,38.46,6.59,41.1,23.06,3.13,51.64-27.84,62.76-39.2,2.14-2.14,1.48-5.85-2.14-2.14-6.51,6.75-28.58,26.85-44.64,32.94-44.15,16.47,12.11-58.64,16.72-64.65C919.3,165,942.61,142.32,949.61,130.87Z" fill="#49535a"/>
  <g id="over-text">
    <g clip-path="url(#clip-path)">
      <rect id="difference" x="128.71" y="31.26" width="591.29" height="295.65" fill="#dde1e3"/>
    </g>
  </g>
</svg>
