<svg id="container" xmlns="http://www.w3.org/2000/svg" viewBox="0 0 360 240"><title>2016-01-15-logotype-pine-orchard--green</title><rect id="background" width="360" height="240" fill="#bdc6c0"/><path d="M32.34,114.52q-0.19,0-.19-0.47v-0.28a0.19,0.19,0,0,1,.23-0.19,2.6,2.6,0,0,0,.69-0.14q0.46-.14.69-0.19a2.63,2.63,0,0,0,2.39-2.72V85.78q0-2.16-.8-2.75a5,5,0,0,0-2.88-.6H31.43a0.47,0.47,0,0,1-.49-0.56,0.37,0.37,0,0,1,.3-0.4h0.16l13.15-.35h2.37a10.63,10.63,0,0,1,7,3,8.89,8.89,0,0,1,2.79,6.57,11.1,11.1,0,0,1-5.44,9.19,6.14,6.14,0,0,1-3,.88l-7-.28H41.09a0.3,0.3,0,0,0-.35.33v9.63a2.38,2.38,0,0,0,.7,1.9,6.48,6.48,0,0,0,3,1l1,0.15a7.41,7.41,0,0,0,.91.11,0.19,0.19,0,0,1,.23.19v0.56a0.17,0.17,0,0,1-.19.19h-14ZM42.63,82.3l-0.6,0-0.81,0a0.4,0.4,0,0,0-.49.39V97.85l0,0.7a0.5,0.5,0,0,0,.45.52l2.39,0.14a7.84,7.84,0,0,0,6.08-2.53A9.08,9.08,0,0,0,52,90.32a7.77,7.77,0,0,0-2.24-5.94,8.34,8.34,0,0,0-6-2.11H43.2Z" fill="#182905"/><path d="M67.65,92.37a0.12,0.12,0,0,1,.14.14v0.87a0.9,0.9,0,0,1-.7.12,2.11,2.11,0,0,0-1.28.42,2.2,2.2,0,0,0-.57,1.83v15.77a1.61,1.61,0,0,0,.63,1.46,3.22,3.22,0,0,0,1.76.41,0.12,0.12,0,0,1,.12.14v0.87a0.1,0.1,0,0,1-.12.12H59a0.12,0.12,0,0,1-.14-0.12v-0.87a0.76,0.76,0,0,1,.69-0.14,2.1,2.1,0,0,0,1.28-.43,2.18,2.18,0,0,0,.59-1.82V95.39a1.64,1.64,0,0,0-.63-1.49,2.3,2.3,0,0,0-1.25-.41,0.72,0.72,0,0,1-.62-0.12V92.51A0.12,0.12,0,0,1,59,92.37h8.65Z" fill="#182905"/><path d="M79,113.53v0.87a0.1,0.1,0,0,1-.12.12H70.23a0.1,0.1,0,0,1-.12-0.12v-0.87a0.76,0.76,0,0,1,.69-0.14,2.71,2.71,0,0,0,.9-0.09,1.91,1.91,0,0,0,1-1.24,7.19,7.19,0,0,0,.23-1.92V94.8q-0.12-1.31-2.74-1.31a0.1,0.1,0,0,1-.12-0.12V92.51a0.12,0.12,0,0,1,.12-0.14h7.24l14.88,16.5a0.39,0.39,0,0,0,.22.14q0.08,0,.08-0.14V98.55a14.79,14.79,0,0,0-.29-4,1.5,1.5,0,0,0-.82-0.87,4.37,4.37,0,0,0-1.49-.2H89.23a0.1,0.1,0,0,1-.12-0.12V92.51a0.12,0.12,0,0,1,.12-0.14h8.65a0.12,0.12,0,0,1,.14.14v0.87q0,0.12-.46.12A4.15,4.15,0,0,0,96,94,1.55,1.55,0,0,0,95,95.34v18.82q0,0.68-1.17.68a2.12,2.12,0,0,1-1.66-.56L75.85,96.21a0.43,0.43,0,0,0-.3-0.14s-0.07,0-.07.14V111.4a1.83,1.83,0,0,0,1.5,1.66,4.63,4.63,0,0,0,1.48.33Q79,113.39,79,113.53Z" fill="#182905"/><path d="M114.69,106.24a2,2,0,0,0-2.18-2.27h-5.37a0.15,0.15,0,0,0-.16.16v7.27a1.17,1.17,0,0,0,1.08,1.34l0.66,0H114a2.69,2.69,0,0,0,2.38-1.15,5,5,0,0,0,.9-2.37,0.56,0.56,0,0,1,.61-0.45l0.29,0.08a0.32,0.32,0,0,1,.25.15l-0.52,5.27a0.24,0.24,0,0,1-.21.21H98.89a0.12,0.12,0,0,1-.14-0.12v-0.94a0.12,0.12,0,0,1,.14-0.12h0.35q0.66,0,1.34,0,2.55,0,2.55-2.09V95.67a2,2,0,0,0-1.85-2l-1.05-.21h-0.3a0.12,0.12,0,0,1-.14-0.12V92.51a0.12,0.12,0,0,1,.14-0.14h16.2a0.54,0.54,0,0,1,.59.56L117,97.48q0,0.16-.52.16a0.67,0.67,0,0,1-.57-0.19,1.6,1.6,0,0,1-.18-0.7q-0.21-2.37-1.95-2.62h-6.56a0.18,0.18,0,0,0-.21.19v7.76a0.15,0.15,0,0,0,.16.16h5.41q2.13,0,2.13-2.34a0.1,0.1,0,0,1,.12-0.12h0.87a0.1,0.1,0,0,1,.12.12v6.73a0.1,0.1,0,0,1-.12.12h-0.87Q114.69,106.73,114.69,106.24Z" fill="#182905"/><path d="M158.85,114.44a15.56,15.56,0,0,1-4.29.7,21.73,21.73,0,0,1-7.34-1.24,17.9,17.9,0,0,1-7.69-5.13A17.55,17.55,0,0,1,138.29,89a17.43,17.43,0,0,1,6.81-6.25,19.72,19.72,0,0,1,9.35-2.3,18,18,0,0,1,9,2.23,17.28,17.28,0,0,1,6.35,6.12,15.8,15.8,0,0,1,2.39,8.43,17,17,0,0,1-2.37,8.63,18.62,18.62,0,0,1-6.49,6.62A18.41,18.41,0,0,1,158.85,114.44ZM140.75,97a18.68,18.68,0,0,0,1.72,7.72,15.73,15.73,0,0,0,4.93,6.25,12,12,0,0,0,7.43,2.41,10.92,10.92,0,0,0,9.35-4.59,17.53,17.53,0,0,0,3-10.59,17.32,17.32,0,0,0-3.7-11.11,13.7,13.7,0,0,0-4.42-3.64,11.25,11.25,0,0,0-5.27-1.37,13.61,13.61,0,0,0-4.36.59,11.44,11.44,0,0,0-3.08,1.61,11.76,11.76,0,0,0-2.44,2.43,14.73,14.73,0,0,0-1.76,3A18.43,18.43,0,0,0,140.75,97Z" fill="#182905"/><path d="M185.08,113.88a0.12,0.12,0,0,1,.12.14v0.38a0.1,0.1,0,0,1-.12.12H174.66q-0.12,0-.12-0.33v-0.66a0.12,0.12,0,0,1,.12-0.14l1.41-.21a1.73,1.73,0,0,0,1.59-1.8V95.27a2,2,0,0,0-1.08-1.92,2.89,2.89,0,0,0-1.38-.35h-0.59a0.12,0.12,0,0,1-.14-0.12V92q0-.14.42-0.14l1.43,0,1.86,0,2.67-.08q1.68-.06,3.18-0.06h2.34a6.55,6.55,0,0,1,4.84,2.16,7.08,7.08,0,0,1,1.68,4.75,4.84,4.84,0,0,1-2.25,4.28,12.06,12.06,0,0,1-1.48.82l4.8,7.76a5.9,5.9,0,0,0,3.3,2.88,0.33,0.33,0,0,1,.16.34q0,0.27-.56.27h-0.68a6.36,6.36,0,0,1-5.6-2.72q-0.42-.61-1-1.29L186,105.07a0.13,0.13,0,0,0-.07,0l-4.05-.19h-0.12a0.21,0.21,0,0,0-.23.23v6.75a1.6,1.6,0,0,0,.48,1.27,3.26,3.26,0,0,0,1.68.59ZM181.85,93q-0.37,0-.37.26v9.52l0,0.47a0.3,0.3,0,0,0,.21.35,16.18,16.18,0,0,0,2,.09q5.32,0,5.32-5.37a5.15,5.15,0,0,0-1.54-3.95,5.54,5.54,0,0,0-3.95-1.44Z" fill="#182905"/><path d="M218.14,113.93q0,0.12-.35,0a4.78,4.78,0,0,0-1-.07,6.49,6.49,0,0,0-1.41.16l-2.34.52a16,16,0,0,1-3.43.35,13.05,13.05,0,0,1-4.16-.8,12.1,12.1,0,0,1-4-2.27,10.44,10.44,0,0,1-3.73-8.33,11,11,0,0,1,3.64-8.47,13.09,13.09,0,0,1,9.18-3.33,27.29,27.29,0,0,1,5.55.84q0.47,0.14,1,.35a2.35,2.35,0,0,0,.7.21l0.47-.14h1q0.21,0,.21.28v4.88q0,0.16-.53.16a0.76,0.76,0,0,1-.64-0.19q-0.12-.19-0.52-1a6.19,6.19,0,0,0-2.7-2.88,8.47,8.47,0,0,0-4.12-1q-4.45,0-6.63,2.48t-2.18,7a11.08,11.08,0,0,0,2.45,7.43,8.28,8.28,0,0,0,6.66,2.88,9.22,9.22,0,0,0,6.79-2.55,6.18,6.18,0,0,0,1.15-1.39,1.16,1.16,0,0,1,.42-0.57h0.7a0.15,0.15,0,0,1,.16.16,0.85,0.85,0,0,1,0,.29q0,0.13-.27.61l-0.68,1.46Q219,112.1,218.14,113.93Z" fill="#182905"/><path d="M222.46,113.39q2.65,0,2.65-2.25V95.39a1.63,1.63,0,0,0-.67-1.5,2.57,2.57,0,0,0-1.25-.45,0.67,0.67,0,0,1-.59-0.14v-0.8q0-.14.09-0.14h8.67a0.12,0.12,0,0,1,.12.14v0.8s0,0.07-.12.07q-2.41,0-2.41,2.23v6.52a0.21,0.21,0,0,0,.23.23h12.38a0.22,0.22,0,0,0,.26-0.23V95.34q0-1.78-3.47-1.92a0.12,0.12,0,0,1-.14-0.12v-0.8a0.12,0.12,0,0,1,.12-0.14h9.8a0.12,0.12,0,0,1,.12.14v0.8s0,0.07-.12.07q-2.48,0-2.48,2.23v16.08q0,2.13,2.93,2.2a0.12,0.12,0,0,1,.12.14v0.38a0.1,0.1,0,0,1-.12.12H237.84a0.1,0.1,0,0,1-.12-0.12V114a1,1,0,0,1,.8-0.14,5.69,5.69,0,0,0,1.78-.33,1.82,1.82,0,0,0,1.52-1.69v-7.52a0.22,0.22,0,0,0-.26-0.23H229.19a0.21,0.21,0,0,0-.23.23v7.17q0,1.88,2.77,1.88a0.12,0.12,0,0,1,.14.14v0.87a0.09,0.09,0,0,1-.09.12h-9.49a0.1,0.1,0,0,1-.12-0.12v-0.87Q222.16,113.39,222.46,113.39Z" fill="#182905"/><path d="M258.6,113.39a0.12,0.12,0,0,1,.12.14v0.87a0.1,0.1,0,0,1-.12.12h-8.16a0.1,0.1,0,0,1-.12-0.12v-0.87q0-.14.21-0.14a3.21,3.21,0,0,0,3.09-2.3l6.21-18-0.16-.59q0-.09.07-0.09h4.15l0.07,0a0.27,0.27,0,0,1,.09.09l6.47,18.14q1,2.74,3.4,2.74a0.12,0.12,0,0,1,.12.14v0.87a0.1,0.1,0,0,1-.12.12H263.45a0.1,0.1,0,0,1-.12-0.12v-0.87a0.12,0.12,0,0,1,.12-0.14h0.21l0.8,0q2.41-.09,2.41-1.5l0-.23-1.95-5.46a2.26,2.26,0,0,0-.23-0.36,0.68,0.68,0,0,0-.59-0.29h-5.93a0.83,0.83,0,0,0-.77.49,0.51,0.51,0,0,0-.07.14l-1.95,5.65a1.54,1.54,0,0,0,1.2,1.34,4.29,4.29,0,0,0,1.64.28h0.4Zm4.95-9.89a0.25,0.25,0,0,0,.3-0.26,0.74,0.74,0,0,0-.09-0.26l-2.51-7a0.63,0.63,0,0,0-.22-0.4,0.82,0.82,0,0,0-.27.45L258.43,103l-0.06.15a0.36,0.36,0,0,0,0,.13,0.22,0.22,0,0,0,.26.23h4.95Z" fill="#182905"/><path d="M286.13,113.88a0.12,0.12,0,0,1,.12.14v0.38a0.1,0.1,0,0,1-.12.12H275.7q-0.12,0-.12-0.33v-0.66a0.12,0.12,0,0,1,.12-0.14l1.41-.21a1.73,1.73,0,0,0,1.59-1.8V95.27a2,2,0,0,0-1.08-1.92,2.89,2.89,0,0,0-1.38-.35h-0.59a0.12,0.12,0,0,1-.14-0.12V92q0-.14.42-0.14l1.43,0,1.86,0,2.67-.08q1.68-.06,3.18-0.06h2.34a6.55,6.55,0,0,1,4.84,2.16,7.08,7.08,0,0,1,1.68,4.75,4.84,4.84,0,0,1-2.25,4.28,12.06,12.06,0,0,1-1.48.82l4.8,7.76a5.9,5.9,0,0,0,3.3,2.88,0.33,0.33,0,0,1,.16.34q0,0.27-.56.27h-0.68a6.36,6.36,0,0,1-5.6-2.72q-0.42-.61-1-1.29L287,105.07a0.13,0.13,0,0,0-.07,0l-4.05-.19h-0.12a0.21,0.21,0,0,0-.23.23v6.75a1.6,1.6,0,0,0,.48,1.27,3.26,3.26,0,0,0,1.68.59ZM282.89,93q-0.37,0-.37.26v9.52l0,0.47a0.3,0.3,0,0,0,.21.35,16.18,16.18,0,0,0,2,.09q5.32,0,5.32-5.37a5.15,5.15,0,0,0-1.54-3.95,5.54,5.54,0,0,0-3.95-1.44Z" fill="#182905"/><path d="M300.47,93.28a0.12,0.12,0,0,1-.12-0.14V92.23a0.09,0.09,0,0,1,.12-0.09l6.14-.28q2.74-.14,4.38-0.14,6.84,0,9.77,2.05A11.36,11.36,0,0,1,325,99.47a11.85,11.85,0,0,1,.61,3.9,9.67,9.67,0,0,1-1,4.27,11.47,11.47,0,0,1-2.77,3.64,12.48,12.48,0,0,1-8.62,3.23h-12.7a0.1,0.1,0,0,1-.12-0.12v-0.94a0.1,0.1,0,0,1,.12-0.12h0.33q2.86,0,2.86-1.83V95a1.63,1.63,0,0,0-1.45-1.66,3,3,0,0,0-.73-0.09h-1Zm7,18.54q0,1.13,2.18,1.2,0.66,0,2.26,0a12,12,0,0,0,3.55-.61q6-1.87,6-9.21A10.37,10.37,0,0,0,319,96a8.74,8.74,0,0,0-6.82-2.8h-4.29a0.36,0.36,0,0,0-.4.42v18.21Z" fill="#182905"/><path d="M41.43,152.34a0.15,0.15,0,0,1-.17.17h-11a0.15,0.15,0,0,1-.17-0.17v-0.52c0-.11.09-0.17,0.28-0.17a4.15,4.15,0,0,0,4-3.14l8.77-25.37a0.24,0.24,0,0,0,0-.11l-0.24-.71a0.09,0.09,0,0,1,.09-0.11h4.3l0.12,0a0.2,0.2,0,0,1,.12.13l9.09,25.5a10.86,10.86,0,0,1,.48,1.05,5.28,5.28,0,0,0,.42.86,3.29,3.29,0,0,0,1.7,1.35,4.09,4.09,0,0,0,1.8.49,0.16,0.16,0,0,1,.17.19v0.49a0.15,0.15,0,0,1-.17.17H47.88a0.15,0.15,0,0,1-.17-0.17v-0.52a0.88,0.88,0,0,1,.79-0.21l1.31-.09q3-.32,3-2a1.28,1.28,0,0,0,0-.3l-3.24-9.15-0.09-.19a0.93,0.93,0,0,0-.9-0.73H40.89a1.12,1.12,0,0,0-1,.71,1,1,0,0,0-.06.17l-3.22,9.43v0.19a1.28,1.28,0,0,0,.58,1,5.63,5.63,0,0,0,3.52,1h0.56a0.15,0.15,0,0,1,.17.17v0.52Zm6.36-15.6a0.32,0.32,0,0,0,.39-0.32,1.06,1.06,0,0,0-.09-0.39l-3.2-8.81a1,1,0,0,0-.32-0.58,1.09,1.09,0,0,0-.34.6l-3,8.79a1.23,1.23,0,0,0-.09.46c0,0.17.11,0.25,0.32,0.25h6.34Z" fill="#182905"/><path d="M70.78,151.61v0.79a0.1,0.1,0,0,1-.11.11H62.72a0.09,0.09,0,0,1-.11-0.11v-0.79a0.7,0.7,0,0,1,.63-0.13,2.47,2.47,0,0,0,.83-0.09,1.75,1.75,0,0,0,.95-1.14,6.6,6.6,0,0,0,.21-1.76V134.45q-0.11-1.2-2.51-1.2a0.09,0.09,0,0,1-.11-0.11v-0.79a0.11,0.11,0,0,1,.11-0.13h6.64L83,147.34a0.35,0.35,0,0,0,.2.13s0.08,0,.08-0.13v-9.45a13.57,13.57,0,0,0-.27-3.66,1.38,1.38,0,0,0-.75-0.79,4,4,0,0,0-1.36-.18H80.14a0.09,0.09,0,0,1-.11-0.11v-0.79a0.11,0.11,0,0,1,.11-0.13h7.93a0.11,0.11,0,0,1,.13.13v0.79q0,0.11-.42.11a3.81,3.81,0,0,0-1.4.48,1.42,1.42,0,0,0-1,1.21v17.25q0,0.62-1.07.62a1.94,1.94,0,0,1-1.53-.52L67.88,135.74a0.39,0.39,0,0,0-.28-0.13s-0.06,0-.06.13v13.92a1.68,1.68,0,0,0,1.38,1.53,4.24,4.24,0,0,0,1.35.3Q70.78,151.48,70.78,151.61Z" fill="#182905"/><path d="M95.25,151.61a0.11,0.11,0,0,1,.11-0.13h0.82a3.2,3.2,0,0,0,2.51-1.25,1.43,1.43,0,0,0,.21-0.77V134a0.33,0.33,0,0,0-.13-0.34l-0.3-.06H93q-1.48.34-2,3a1.62,1.62,0,0,0-.06.34c0,0.14-.06.21-0.15,0.21H90.05c-0.06,0-.09,0-0.09-0.06V136.6l0.52-4.49a0.51,0.51,0,0,1,.6-0.43,0.89,0.89,0,0,1,.5.27,1.44,1.44,0,0,0,1,.27h16.24a1.44,1.44,0,0,0,1-.27,0.89,0.89,0,0,1,.53-0.27,0.47,0.47,0,0,1,.56.43l0.54,4.71v0.47s0,0.06-.09.06h-0.71a1.45,1.45,0,0,1-.3-0.88,6.38,6.38,0,0,0-.57-1.67,1.81,1.81,0,0,0-1.32-1h-5.52l-0.31.06c-0.08,0-.12.12-0.12,0.32v15.25a1.58,1.58,0,0,0,.75,1.34,4.32,4.32,0,0,0,2,.68H106a0.11,0.11,0,0,1,.11.13v0.79a0.1,0.1,0,0,1-.11.11H95.36a0.09,0.09,0,0,1-.11-0.11v-0.79Z" fill="#182905"/><path d="M121.39,132.21a0.11,0.11,0,0,1,.13.13v0.79a0.82,0.82,0,0,1-.64.11,1.93,1.93,0,0,0-1.17.39,2,2,0,0,0-.53,1.68v14.46a1.48,1.48,0,0,0,.58,1.34,2.94,2.94,0,0,0,1.61.38,0.11,0.11,0,0,1,.11.13v0.79a0.1,0.1,0,0,1-.11.11h-7.93a0.11,0.11,0,0,1-.13-0.11v-0.79a0.7,0.7,0,0,1,.63-0.13,1.93,1.93,0,0,0,1.17-.4,2,2,0,0,0,.54-1.67V135a1.5,1.5,0,0,0-.58-1.36,2.11,2.11,0,0,0-1.15-.38,0.66,0.66,0,0,1-.57-0.11v-0.79a0.11,0.11,0,0,1,.11-0.13h7.93Z" fill="#182905"/><path d="M133.31,152.82l-0.17,0-0.19,0a11,11,0,0,1-6.79-3.43A10.25,10.25,0,0,1,123.4,142a9.68,9.68,0,0,1,3.2-7.39,11.27,11.27,0,0,1,8-3,11.11,11.11,0,0,1,7.93,3,10,10,0,0,1,3.15,7.58q0,5.54-5.61,9.22l-0.41.21L139,152l-0.67.35-0.32.16,4.64,3.57a9.94,9.94,0,0,0,2.78,1.68,1.65,1.65,0,0,1,1,.47q0,0.45-1.33.45a9,9,0,0,1-4.79-1.1,29.33,29.33,0,0,1-4.66-3.39A3.9,3.9,0,0,0,133.31,152.82Zm-6.21-11a10.58,10.58,0,0,0,2.16,6.62,7.19,7.19,0,0,0,6,2.7q4.88,0,6.32-4.79a12.28,12.28,0,0,0,.47-3.54,11.17,11.17,0,0,0-1.87-6.75q-1.87-2.56-6-2.79a6.31,6.31,0,0,0-5.31,2.32A9.72,9.72,0,0,0,127.1,141.85Z" fill="#182905"/><path d="M171.73,133.24q-2.58,0-2.58,1.93v8.72a9.54,9.54,0,0,1-2.29,6.68,8,8,0,0,1-6.19,2.51,14.07,14.07,0,0,1-7.1-1.83,7.37,7.37,0,0,1-3.12-3.24,5.2,5.2,0,0,1-.47-2.23V135a1.68,1.68,0,0,0-1.5-1.63,3.36,3.36,0,0,0-.74-0.11q-0.29,0-.29-0.11v-0.79c0-.09,0-0.13.09-0.13h8.55a0.11,0.11,0,0,1,.13.13v0.79a0.11,0.11,0,0,1-.13.11q-2.56,0-2.56,1.93v9.6a5.92,5.92,0,0,0,2,4.71,7.32,7.32,0,0,0,5,1.76,7.09,7.09,0,0,0,4.82-1.63,5.76,5.76,0,0,0,1.88-4.6v-8.44a5.32,5.32,0,0,0-.24-1.91q-0.62-1.42-2.81-1.42a0.09,0.09,0,0,1-.11-0.11v-0.79a0.11,0.11,0,0,1,.11-0.13h7.54a0.11,0.11,0,0,1,.11.13v0.79A0.1,0.1,0,0,1,171.73,133.24Z" fill="#182905"/><path d="M187.17,144.93a1.81,1.81,0,0,0-2-2.08h-4.92a0.13,0.13,0,0,0-.15.15v6.66a1.07,1.07,0,0,0,1,1.22l0.6,0h4.81a2.46,2.46,0,0,0,2.18-1.05,4.6,4.6,0,0,0,.83-2.17,0.52,0.52,0,0,1,.56-0.41l0.27,0.08a0.29,0.29,0,0,1,.23.14l-0.47,4.83a0.22,0.22,0,0,1-.19.19H172.69a0.11,0.11,0,0,1-.13-0.11v-0.86a0.11,0.11,0,0,1,.13-0.11H173q0.6,0,1.22,0,2.34,0,2.34-1.91V135.24a1.81,1.81,0,0,0-1.7-1.8l-1-.19h-0.28a0.11,0.11,0,0,1-.13-0.11v-0.79a0.11,0.11,0,0,1,.13-0.13h14.85a0.49,0.49,0,0,1,.54.52l0.24,4.17q0,0.15-.47.15a0.61,0.61,0,0,1-.53-0.17,1.46,1.46,0,0,1-.16-0.64q-0.19-2.17-1.78-2.41h-6a0.16,0.16,0,0,0-.19.17v7.11a0.13,0.13,0,0,0,.15.15h5q2,0,2-2.15a0.1,0.1,0,0,1,.11-0.11h0.79a0.1,0.1,0,0,1,.11.11v6.17a0.1,0.1,0,0,1-.11.11h-0.79Q187.17,145.38,187.17,144.93Z" fill="#182905"/><path d="M206.33,152.52q-0.17,0-.17-0.43v-0.26a0.17,0.17,0,0,1,.21-0.17,2.38,2.38,0,0,0,.63-0.13q0.42-.13.63-0.17a2.41,2.41,0,0,0,2.19-2.49V126.18q0-2-.73-2.52a4.62,4.62,0,0,0-2.64-.55h-1a0.43,0.43,0,0,1-.45-0.52,0.33,0.33,0,0,1,.28-0.37h0.15l12.05-.32h2.17a9.74,9.74,0,0,1,6.4,2.77,8.15,8.15,0,0,1,2.56,6,10.17,10.17,0,0,1-5,8.42,5.63,5.63,0,0,1-2.71.81l-6.45-.26h-0.17a0.28,0.28,0,0,0-.32.3v8.83a2.18,2.18,0,0,0,.64,1.74,5.93,5.93,0,0,0,2.73.88l0.9,0.14a6.78,6.78,0,0,0,.84.1,0.17,0.17,0,0,1,.21.17v0.52a0.15,0.15,0,0,1-.17.17H206.33ZM215.76,123l-0.55,0-0.74,0a0.37,0.37,0,0,0-.45.35v13.86l0,0.64a0.45,0.45,0,0,0,.41.47l2.19,0.13a7.19,7.19,0,0,0,5.58-2.32,8.33,8.33,0,0,0,2.12-5.83,7.12,7.12,0,0,0-2.05-5.45,7.65,7.65,0,0,0-5.47-1.93h-0.56Z" fill="#182905"/><path d="M240.22,151.94a0.11,0.11,0,0,1,.11.13v0.34a0.1,0.1,0,0,1-.11.11h-9.56c-0.07,0-.11-0.1-0.11-0.3v-0.6a0.11,0.11,0,0,1,.11-0.13l1.29-.19a1.58,1.58,0,0,0,1.46-1.65V134.88a1.85,1.85,0,0,0-1-1.76,2.65,2.65,0,0,0-1.27-.32h-0.54a0.11,0.11,0,0,1-.13-0.11v-0.79q0-.13.39-0.13l1.31,0,1.71,0,2.45-.08q1.54-.05,2.91-0.05h2.15a6,6,0,0,1,4.44,2,6.49,6.49,0,0,1,1.54,4.35,4.44,4.44,0,0,1-2.06,3.92,11.09,11.09,0,0,1-1.35.75l4.4,7.11a5.4,5.4,0,0,0,3,2.64,0.3,0.3,0,0,1,.15.31q0,0.25-.52.25H250.4a5.82,5.82,0,0,1-5.13-2.49c-0.26-.37-0.55-0.77-0.88-1.18L241,143.86l-0.06,0-3.72-.17h-0.11a0.19,0.19,0,0,0-.21.21V150a1.46,1.46,0,0,0,.44,1.16,3,3,0,0,0,1.54.54Zm-3-19.14c-0.23,0-.34.08-0.34,0.24v8.72l0,0.43a0.28,0.28,0,0,0,.19.32,14.75,14.75,0,0,0,1.8.09q4.88,0,4.88-4.92a4.73,4.73,0,0,0-1.41-3.62,5.07,5.07,0,0,0-3.62-1.32Z" fill="#182905"/><path d="M261.05,132.21a0.11,0.11,0,0,1,.13.13v0.79a0.82,0.82,0,0,1-.64.11,1.93,1.93,0,0,0-1.17.39,2,2,0,0,0-.53,1.68v14.46a1.48,1.48,0,0,0,.58,1.34,2.94,2.94,0,0,0,1.61.38,0.11,0.11,0,0,1,.11.13v0.79a0.1,0.1,0,0,1-.11.11H253.1a0.11,0.11,0,0,1-.13-0.11v-0.79a0.7,0.7,0,0,1,.63-0.13,1.93,1.93,0,0,0,1.17-.4,2,2,0,0,0,.54-1.67V135a1.5,1.5,0,0,0-.58-1.36,2.11,2.11,0,0,0-1.15-.38,0.66,0.66,0,0,1-.57-0.11v-0.79a0.11,0.11,0,0,1,.11-0.13h7.93Z" fill="#182905"/><path d="M271.47,151.61v0.79a0.1,0.1,0,0,1-.11.11h-7.95a0.09,0.09,0,0,1-.11-0.11v-0.79a0.7,0.7,0,0,1,.63-0.13,2.48,2.48,0,0,0,.83-0.09,1.75,1.75,0,0,0,.95-1.14,6.62,6.62,0,0,0,.21-1.76V134.45q-0.11-1.2-2.51-1.2a0.09,0.09,0,0,1-.11-0.11v-0.79a0.11,0.11,0,0,1,.11-0.13h6.64l13.64,15.13a0.35,0.35,0,0,0,.2.13s0.08,0,.08-0.13v-9.45a13.57,13.57,0,0,0-.27-3.66,1.38,1.38,0,0,0-.75-0.79,4,4,0,0,0-1.36-.18h-0.75a0.09,0.09,0,0,1-.11-0.11v-0.79a0.11,0.11,0,0,1,.11-0.13h7.93a0.11,0.11,0,0,1,.13.13v0.79q0,0.11-.42.11a3.81,3.81,0,0,0-1.4.48,1.42,1.42,0,0,0-1,1.21v17.25q0,0.62-1.07.62a1.94,1.94,0,0,1-1.53-.52l-14.93-16.56a0.39,0.39,0,0,0-.28-0.13s-0.06,0-.06.13v13.92a1.68,1.68,0,0,0,1.38,1.53,4.24,4.24,0,0,0,1.35.3Q271.47,151.48,271.47,151.61Z" fill="#182905"/><path d="M295.95,151.61a0.11,0.11,0,0,1,.11-0.13h0.82a3.2,3.2,0,0,0,2.51-1.25,1.43,1.43,0,0,0,.21-0.77V134a0.33,0.33,0,0,0-.13-0.34l-0.3-.06h-5.52q-1.48.34-2,3a1.56,1.56,0,0,0-.06.34c0,0.14-.06.21-0.15,0.21h-0.71c-0.06,0-.09,0-0.09-0.06V136.6l0.52-4.49a0.51,0.51,0,0,1,.6-0.43,0.89,0.89,0,0,1,.5.27,1.44,1.44,0,0,0,1,.27h16.24a1.44,1.44,0,0,0,1-.27,0.89,0.89,0,0,1,.53-0.27,0.47,0.47,0,0,1,.56.43l0.54,4.71v0.47s0,0.06-.09.06h-0.71a1.45,1.45,0,0,1-.3-0.88,6.4,6.4,0,0,0-.57-1.67,1.82,1.82,0,0,0-1.32-1h-5.52l-0.31.06c-0.08,0-.12.12-0.12,0.32v15.25a1.58,1.58,0,0,0,.75,1.34,4.32,4.32,0,0,0,2,.68h0.82a0.11,0.11,0,0,1,.11.13v0.79a0.1,0.1,0,0,1-.11.11H296.05a0.09,0.09,0,0,1-.11-0.11v-0.79Z" fill="#182905"/><path d="M313.7,147.51c0-.21.25-0.32,0.75-0.32a0.59,0.59,0,0,1,.45.52,5.16,5.16,0,0,0,5.33,3.89q2.49,0,3.29-1.68a4.24,4.24,0,0,0,.26-1.67,3.69,3.69,0,0,0-.7-2.11,8.79,8.79,0,0,0-1.75-1.87,27.58,27.58,0,0,0-2.28-1.64q-4.75-3-4.75-6.06a4.25,4.25,0,0,1,1.79-3.62,6.5,6.5,0,0,1,3.94-1.32,7.47,7.47,0,0,1,2.13.31q1.05,0.31,2.13.57l1.12-.24a0.3,0.3,0,0,1,.17.16,0.53,0.53,0,0,1,.11.27l0.49,3.85q0,0.09-.16.11l-0.29,0a1,1,0,0,1-.53-0.06l-0.1-.2q-0.06-.14-0.13-0.31a5.37,5.37,0,0,0-3.46-3,5.61,5.61,0,0,0-1.59-.19,3.36,3.36,0,0,0-1.83.56,1.93,1.93,0,0,0-.88,1.76,3.58,3.58,0,0,0,.71,2.17,15.51,15.51,0,0,0,4,3.42q4.77,3.07,4.77,6.68a4.6,4.6,0,0,1-2,3.9,7.58,7.58,0,0,1-4.58,1.47,8,8,0,0,1-2.56-.32l-1.28-.46a1.69,1.69,0,0,0-.59-0.14,5.88,5.88,0,0,0-.9.1q-0.58.1-.62-0.27Z" fill="#182905"/></svg>