<svg id="screens" xmlns="http://www.w3.org/2000/svg" viewBox="0 0 640 480">
  <title>2016-10-09-perspective-screens</title>
  <path id="third" d="M243,146.51l262.34-39.37a4.1,4.1,0,0,1,4.71,3.84V368.8c0,2.37-2.54,4.19-4.89,3.84L243.25,333.33a3.76,3.76,0,0,1-3.16-3.84V150.35A3.59,3.59,0,0,1,243,146.51Z" fill="#cad0d4" stroke="#454e54" stroke-miterlimit="10" stroke-width="5"/>
  <path id="second" d="M194.65,135.23l287.1-52.52a3.69,3.69,0,0,1,4.34,3.82v307.1a4,4,0,0,1-4.66,3.82L194.68,344.88c-1.84-.34-2.6-1.94-2.6-3.82v-202C192.09,137.18,192.8,135.57,194.65,135.23Z" fill="#cad0d4" stroke="#454e54" stroke-miterlimit="10" stroke-width="5"/>
  <path id="first" d="M448.25,432.93,132.93,359.46a3.74,3.74,0,0,1-2.84-3.78V124.33a3.71,3.71,0,0,1,2.8-3.78L448.35,47.07a3.86,3.86,0,0,1,4.74,3.78v378.3A4,4,0,0,1,448.25,432.93Z" fill="#d2e4ef" stroke="#454e54" stroke-miterlimit="10" stroke-width="5"/>
</svg>
