<svg id="Layer_1" data-name="Layer 1" xmlns="http://www.w3.org/2000/svg" viewBox="0 0 1280 480">
  <title>Artboard 1</title>
  <rect id="background" width="1280" height="480" fill="#394146"/>
  <path id="discrete" d="M586,124H430v37.12H396.39v64.52H270v64.52H110V360" fill="none" stroke="#f1f3f4" stroke-linejoin="round" stroke-width="8"/>
  <path id="gradual" d="M1172.24,123.59,695.8,356.41" fill="#fff" stroke="#f1f3f4" stroke-miterlimit="10" stroke-width="8"/>
  <g>
    <path d="M150.71,426.93h-7v-22h7c6.65,0,11.09,3.15,11.09,11S157.28,426.93,150.71,426.93Zm9.21-11c0-6.07-2.75-9.65-9.25-9.65h-5.18v19.19h5.18C157.2,425.52,159.92,422,159.92,416Z" fill="#f1f3f4"/>
    <path d="M166.93,406.85v-2.72h1.91v2.36Zm.15,20.08V411.77l1.43-.3h.18v15.45Z" fill="#f1f3f4"/>
    <path d="M173.8,425.52a19.09,19.09,0,0,0,3.85.46c2.9,0,5.32-.69,5.32-3,0-3.84-9.21-2.62-9.21-7.64,0-2.72,2.53-4,6.13-4a22.38,22.38,0,0,1,3.89.43l-.11,1.38a18.21,18.21,0,0,0-3.82-.46c-2.06,0-4.37.39-4.37,2.63,0,3.74,9.21,2.76,9.21,7.48,0,3.38-3.19,4.53-6.79,4.53a26.29,26.29,0,0,1-4.19-.39Z" fill="#f1f3f4"/>
    <path d="M201.77,426.66a21.69,21.69,0,0,1-5,.66c-5.84,0-8.33-3.12-8.33-8.1s3.3-7.87,8.7-7.87a18,18,0,0,1,4.22.56l-.18,1.41a16.31,16.31,0,0,0-4.22-.62c-3.6,0-6.76,1.67-6.76,6.43,0,5.45,3,6.86,6.76,6.86a15.37,15.37,0,0,0,4.7-.69Z" fill="#f1f3f4"/>
    <path d="M206.22,426.93V411.77l1.29-.3h.22l.07,3.05a6.43,6.43,0,0,1,5.76-2.92c.18,0,.37,0,.59,0v.46l0,1h-.37a6.36,6.36,0,0,0-5.91,3.28v10.56Z" fill="#f1f3f4"/>
    <path d="M218.33,419.48c0,4.2,2.28,6.5,6.83,6.5a13.73,13.73,0,0,0,5-1v1.44a18.4,18.4,0,0,1-5.32.85c-5.14,0-8.26-2.66-8.26-8.14,0-4.59,3.08-7.84,7.64-7.84s6.54,2.85,6.54,6.1a11.47,11.47,0,0,1-.18,2Zm0-1.28h10.54c0-.16,0-.39,0-.62,0-2.76-1.36-4.89-4.81-4.89C221.23,412.69,218.74,414.56,218.37,418.2Z" fill="#f1f3f4"/>
    <path d="M243,426.89a14.3,14.3,0,0,1-3,.43c-2,0-3.6-.43-3.6-4.1V413h-2.24v-1l2.24-.29v-4.2l1.43-.23h.15v4.43h5.58V413H238v11c0,1.9,1.36,2,2.46,2a10.69,10.69,0,0,0,2.39-.39Z" fill="#f1f3f4"/>
    <path d="M248,419.48c0,4.2,2.28,6.5,6.83,6.5a13.73,13.73,0,0,0,5-1v1.44a18.4,18.4,0,0,1-5.32.85c-5.14,0-8.26-2.66-8.26-8.14,0-4.59,3.08-7.84,7.64-7.84s6.54,2.85,6.54,6.1a11.47,11.47,0,0,1-.18,2Zm0-1.28h10.54c0-.16,0-.39,0-.62,0-2.76-1.36-4.89-4.81-4.89C250.93,412.69,248.44,414.56,248.07,418.2Z" fill="#f1f3f4"/>
    <path d="M273.73,425.52a19.09,19.09,0,0,0,3.85.46c2.9,0,5.32-.69,5.32-3,0-3.84-9.22-2.62-9.22-7.64,0-2.72,2.53-4,6.13-4a22.38,22.38,0,0,1,3.89.43l-.11,1.38a18.21,18.21,0,0,0-3.82-.46c-2.06,0-4.37.39-4.37,2.63,0,3.74,9.21,2.76,9.21,7.48,0,3.38-3.19,4.53-6.79,4.53a26.29,26.29,0,0,1-4.19-.39Z" fill="#f1f3f4"/>
    <path d="M296.57,426.89a14.3,14.3,0,0,1-3,.43c-2,0-3.6-.43-3.6-4.1V413h-2.24v-1l2.24-.29v-4.2l1.43-.23h.15v4.43h5.58V413h-5.54v11c0,1.9,1.36,2,2.46,2a10.69,10.69,0,0,0,2.39-.39Z" fill="#f1f3f4"/>
    <path d="M301.63,419.48c0,4.2,2.28,6.5,6.83,6.5a13.73,13.73,0,0,0,5-1v1.44a18.4,18.4,0,0,1-5.32.85c-5.14,0-8.26-2.66-8.26-8.14,0-4.59,3.08-7.84,7.64-7.84s6.54,2.85,6.54,6.1a11.47,11.47,0,0,1-.18,2Zm0-1.28h10.54c0-.16,0-.39,0-.62,0-2.76-1.36-4.89-4.81-4.89C304.54,412.69,302,414.56,301.67,418.2Z" fill="#f1f3f4"/>
    <path d="M319.07,411.77l1.43-.3h.22v2.36a10.52,10.52,0,0,1,6.61-2.49c3.78,0,6.57,2.17,6.57,7.55,0,5.15-2.83,8.43-8.26,8.43a21.83,21.83,0,0,1-4.92-.75v8.69l-1.43.26h-.22Zm1.65,13.45a18.84,18.84,0,0,0,4.92.79c4.59,0,6.54-3,6.54-7,0-4.17-1.65-6.33-5.14-6.33a10.42,10.42,0,0,0-6.31,2.69Z" fill="#f1f3f4"/>
    <path d="M338,425.52a19.09,19.09,0,0,0,3.85.46c2.9,0,5.32-.69,5.32-3,0-3.84-9.21-2.62-9.21-7.64,0-2.72,2.53-4,6.13-4a22.37,22.37,0,0,1,3.89.43l-.11,1.38a18.22,18.22,0,0,0-3.82-.46c-2.06,0-4.37.39-4.37,2.63,0,3.74,9.21,2.76,9.21,7.48,0,3.38-3.19,4.53-6.79,4.53a26.28,26.28,0,0,1-4.18-.39Z" fill="#f1f3f4"/>
    <path d="M369.22,400.78l1.14.82a21.82,21.82,0,0,0-6.94,16,21.54,21.54,0,0,0,6.94,15.91l-1.14.82a22.43,22.43,0,0,1,0-33.59Z" fill="#f1f3f4"/>
    <path d="M373.67,403.5l1.39-.49h.26v10.4a11.43,11.43,0,0,1,6.35-2.07c3.49,0,6.42,1.94,6.42,7.48,0,5.74-3.6,8.5-8.88,8.5a29.93,29.93,0,0,1-5.54-.66Zm1.65,22a16.73,16.73,0,0,0,4,.46c4.26,0,7.09-2.17,7.09-7,0-4.23-1.58-6.3-5.07-6.3a11,11,0,0,0-6,2.13Z" fill="#f1f3f4"/>
    <path d="M393.13,426.93V411.77l1.28-.3h.22l.07,3.05a6.43,6.43,0,0,1,5.76-2.92c.18,0,.37,0,.59,0v.46l0,1h-.37a6.36,6.36,0,0,0-5.91,3.28v10.56Z" fill="#f1f3f4"/>
    <path d="M405.24,419.48c0,4.2,2.28,6.5,6.83,6.5a13.73,13.73,0,0,0,5-1v1.44a18.4,18.4,0,0,1-5.32.85c-5.14,0-8.26-2.66-8.26-8.14,0-4.59,3.08-7.84,7.64-7.84s6.53,2.85,6.53,6.1a11.42,11.42,0,0,1-.18,2Zm0-1.28h10.54c0-.16,0-.39,0-.62,0-2.76-1.36-4.89-4.81-4.89C408.14,412.69,405.64,414.56,405.28,418.2Z" fill="#f1f3f4"/>
    <path d="M426.5,418.76l5.43-.66v-1.34c0-3.12-1.87-4.07-4.44-4.07a15.68,15.68,0,0,0-4.88.92l-.18-1.38a19.69,19.69,0,0,1,5.32-.89c3.19,0,5.8,1.31,5.8,5.41v10.14l-1.32.23H432v-2.07h0a10.27,10.27,0,0,1-6,2.17c-2.31,0-4.55-1.41-4.55-4.1C421.39,421.09,422.83,419.22,426.5,418.76Zm0,7.18a10.24,10.24,0,0,0,5.47-2.13v-4.53l-5.25.69c-2.42.33-3.56,1.48-3.56,3.08S424.33,425.94,426.46,425.94Z" fill="#f1f3f4"/>
    <path d="M441.07,419.09l7.31-7.32h2.2l-7.45,7.32,8.48,7.84h-2.17l-8.37-7.74v7.74h-1.65V403.5l1.4-.49h.26Z" fill="#f1f3f4"/>
    <path d="M455.28,411.77l1.43-.3h.22v2.36a10.52,10.52,0,0,1,6.61-2.49c3.78,0,6.57,2.17,6.57,7.55,0,5.15-2.83,8.43-8.26,8.43a21.84,21.84,0,0,1-4.92-.75v8.69l-1.43.26h-.22Zm1.65,13.45a18.85,18.85,0,0,0,4.92.79c4.59,0,6.54-3,6.54-7,0-4.17-1.65-6.33-5.14-6.33a10.43,10.43,0,0,0-6.32,2.69Z" fill="#f1f3f4"/>
    <path d="M482.12,411.34c5.32,0,8,3.21,8,8s-2.72,8-8,8-8-3.21-8-8S476.83,411.34,482.12,411.34Zm0,14.66c3.63,0,6.28-2,6.28-6.66s-2.64-6.66-6.28-6.66-6.31,2-6.31,6.66S478.52,426,482.15,426Z" fill="#f1f3f4"/>
    <path d="M495,406.85v-2.72h1.91v2.36Zm.15,20.08V411.77l1.43-.3h.18v15.45Z" fill="#f1f3f4"/>
    <path d="M514.83,426.93V416.56c0-2.79-1.58-3.87-3.6-3.87a14.47,14.47,0,0,0-6.83,2.43v11.81h-1.62V411.77l1.25-.3h.26l.07,2.3c2.79-1.61,4.85-2.43,7-2.43,2.72,0,5.07,1.41,5.07,5v10.63Z" fill="#f1f3f4"/>
    <path d="M529.52,426.89a14.3,14.3,0,0,1-3,.43c-2,0-3.6-.43-3.6-4.1V413h-2.24v-1l2.24-.29v-4.2l1.43-.23h.15v4.43h5.58V413h-5.54v11c0,1.9,1.36,2,2.46,2a10.7,10.7,0,0,0,2.39-.39Z" fill="#f1f3f4"/>
    <path d="M532.93,425.52a19.09,19.09,0,0,0,3.85.46c2.9,0,5.32-.69,5.32-3,0-3.84-9.21-2.62-9.21-7.64,0-2.72,2.53-4,6.13-4a22.37,22.37,0,0,1,3.89.43l-.11,1.38a18.22,18.22,0,0,0-3.82-.46c-2.06,0-4.37.39-4.37,2.63,0,3.74,9.21,2.76,9.21,7.48,0,3.38-3.19,4.53-6.79,4.53a26.28,26.28,0,0,1-4.18-.39Z" fill="#f1f3f4"/>
    <path d="M546.51,434.37l-1.14-.82a21.81,21.81,0,0,0,6.94-16,21.53,21.53,0,0,0-6.94-15.91l1.14-.82a22.74,22.74,0,0,1,7.56,16.73A23,23,0,0,1,546.51,434.37Z" fill="#f1f3f4"/>
  </g>
  <g>
    <path d="M795.15,417.91l1.54-.2h.22v7.49a21.34,21.34,0,0,1-8.26,1.58c-7.6,0-11.2-4.83-11.2-11.6s4.88-11.2,12.19-11.2a19.06,19.06,0,0,1,5.73.89c-.15.49-.22,1-.37,1.51a16.69,16.69,0,0,0-5-1c-5.07,0-10.68,2.5-10.68,9.79,0,7.52,4.52,10.22,9.62,10.22a15.65,15.65,0,0,0,6.21-1.15Z" fill="#f1f3f4"/>
    <path d="M802.09,426.38V411.2l1.28-.3h.22l.07,3.06a6.43,6.43,0,0,1,5.76-2.92c.18,0,.37,0,.59,0v.46l0,1h-.37a6.36,6.36,0,0,0-5.91,3.29v10.58Z" fill="#f1f3f4"/>
    <path d="M817.51,418.2l5.43-.66V416.2c0-3.12-1.87-4.07-4.44-4.07a15.66,15.66,0,0,0-4.88.92l-.18-1.38a19.66,19.66,0,0,1,5.32-.89c3.19,0,5.8,1.31,5.8,5.42v10.15l-1.32.23H823v-2.07h0a10.26,10.26,0,0,1-6,2.17c-2.31,0-4.55-1.41-4.55-4.11C812.41,420.53,813.84,418.66,817.51,418.2Zm0,7.2a10.24,10.24,0,0,0,5.47-2.14v-4.53l-5.25.69c-2.42.33-3.56,1.48-3.56,3.09S815.35,425.4,817.48,425.4Z" fill="#f1f3f4"/>
    <path d="M844,426.35l-1.4.2h-.22v-2.07a10.93,10.93,0,0,1-6.39,2.3c-3.78,0-6.61-2.17-6.61-7.59,0-5.16,2.94-8.41,8.52-8.41a18.58,18.58,0,0,1,4.48.66v-8.51l1.39-.49H844Zm-1.62-13.5a17.58,17.58,0,0,0-4.52-.72c-4.7,0-6.75,3-6.75,6.93,0,4.21,1.69,6.41,5.18,6.41a9.87,9.87,0,0,0,6.09-2.5Z" fill="#f1f3f4"/>
    <path d="M849.86,421.85V411.27l1.5-.26h.15v10.58c0,2.76,1.4,3.88,3.56,3.88A14.46,14.46,0,0,0,861.9,423V411.27l1.47-.26h.18v15.38l-1.39.2h-.22v-2.2c-2.79,1.61-4.85,2.4-7,2.4C852.21,426.78,849.86,425.4,849.86,421.85Z" fill="#f1f3f4"/>
    <path d="M873.39,418.2l5.43-.66V416.2c0-3.12-1.87-4.07-4.44-4.07a15.65,15.65,0,0,0-4.88.92l-.18-1.38a19.64,19.64,0,0,1,5.32-.89c3.19,0,5.8,1.31,5.8,5.42v10.15l-1.32.23h-.26v-2.07h0a10.26,10.26,0,0,1-6,2.17c-2.31,0-4.55-1.41-4.55-4.11C868.29,420.53,869.72,418.66,873.39,418.2Zm0,7.2a10.24,10.24,0,0,0,5.47-2.14v-4.53l-5.25.69c-2.42.33-3.56,1.48-3.56,3.09S871.22,425.4,873.35,425.4Z" fill="#f1f3f4"/>
    <path d="M887.71,402.43H888v23.95h-1.65V402.93Z" fill="#f1f3f4"/>
    <path d="M893.33,429.4a7.86,7.86,0,0,0,1.4-3.15l-.66-.1V424h2.06a6.6,6.6,0,0,1,.07,1.25,7.69,7.69,0,0,1-1.84,4.7Z" fill="#f1f3f4"/>
    <path d="M922.48,426.38V404.17a12.54,12.54,0,0,0-3.75-.59c-2.53,0-5,1.28-5,5v2.63h6.06v1.28H913.7v13.93h-1.62V412.45h-2.28v-1l2.28-.3v-2.46c-.11-4.57,3.16-6.47,6.83-6.47a20.55,20.55,0,0,1,5.21.76v23.39Z" fill="#f1f3f4"/>
    <path d="M930,421.85V411.27l1.5-.26h.15v10.58c0,2.76,1.4,3.88,3.56,3.88A14.46,14.46,0,0,0,942,423V411.27l1.47-.26h.18v15.38l-1.39.2h-.22v-2.2c-2.79,1.61-4.85,2.4-7,2.4C932.35,426.78,930,425.4,930,421.85Z" fill="#f1f3f4"/>
    <path d="M949.57,406.28v-2.73h1.91v2.37Zm.15,20.11V411.2l1.43-.3h.18v15.47Z" fill="#f1f3f4"/>
    <path d="M971,426.35l-1.4.2h-.22v-2.07a10.93,10.93,0,0,1-6.39,2.3c-3.78,0-6.61-2.17-6.61-7.59,0-5.16,2.94-8.41,8.52-8.41a18.58,18.58,0,0,1,4.48.66v-8.51l1.39-.49H971Zm-1.62-13.5a17.58,17.58,0,0,0-4.52-.72c-4.7,0-6.75,3-6.75,6.93,0,4.21,1.69,6.41,5.18,6.41a9.87,9.87,0,0,0,6.09-2.5Z" fill="#f1f3f4"/>
    <path d="M998.51,426.12a21.68,21.68,0,0,1-5,.66c-5.84,0-8.33-3.12-8.33-8.12s3.3-7.88,8.7-7.88a18,18,0,0,1,4.22.56l-.18,1.41a16.31,16.31,0,0,0-4.22-.62c-3.6,0-6.75,1.68-6.75,6.44,0,5.45,3,6.87,6.75,6.87a15.34,15.34,0,0,0,4.7-.69Z" fill="#f1f3f4"/>
    <path d="M1015.07,426.38V416c0-2.79-1.65-3.88-3.6-3.88a14.46,14.46,0,0,0-6.83,2.43v11.83H1003V402.76l1.43-.33h.22v10.78c2.75-1.61,4.81-2.43,6.94-2.43,2.75,0,5.1,1.41,5.1,5v10.64Z" fill="#f1f3f4"/>
    <path d="M1026.38,418.2l5.43-.66V416.2c0-3.12-1.87-4.07-4.44-4.07a15.65,15.65,0,0,0-4.88.92l-.18-1.38a19.64,19.64,0,0,1,5.32-.89c3.19,0,5.8,1.31,5.8,5.42v10.15l-1.32.23h-.26v-2.07h0a10.26,10.26,0,0,1-6,2.17c-2.31,0-4.55-1.41-4.55-4.11C1021.27,420.53,1022.7,418.66,1026.38,418.2Zm0,7.2a10.24,10.24,0,0,0,5.47-2.14v-4.53l-5.25.69c-2.42.33-3.56,1.48-3.56,3.09S1024.21,425.4,1026.34,425.4Z" fill="#f1f3f4"/>
    <path d="M1051.3,426.38V416c0-2.79-1.58-3.88-3.6-3.88a14.46,14.46,0,0,0-6.83,2.43v11.83h-1.62V411.2l1.25-.3h.26l.07,2.3c2.79-1.61,4.85-2.43,7-2.43,2.72,0,5.07,1.41,5.07,5v10.64Z" fill="#f1f3f4"/>
    <path d="M1062.28,421.91a4.35,4.35,0,0,0-1.43,2.69c0,.76.55,1.28,2.2,1.28s3.12-.07,4.77-.07c3,0,5.43,1.05,5.43,4,0,2.5-1.95,5.26-8.52,5.26-5.25,0-6.9-1.45-6.9-3.78a6.35,6.35,0,0,1,2.75-4.47,1.93,1.93,0,0,1-1.29-1.87,5,5,0,0,1,1.84-3.51,5.13,5.13,0,0,1-3-5c0-3.19,2.61-5.72,6.64-5.72a10.36,10.36,0,0,1,3,.49h6.13v1.18h-4.55a5.78,5.78,0,0,1,1.83,4c0,3.71-2.9,5.72-6.61,5.72A8.5,8.5,0,0,1,1062.28,421.91Zm5.54,5.32c-1.95,0-5.84-.07-6.09-.07a5.58,5.58,0,0,0-2.2,3.91c0,1.84,1.62,2.69,5.36,2.69,4.19,0,6.68-1.45,6.68-3.78C1071.57,428.22,1070.25,427.3,1067.83,427.24Zm-3.23-6.31c2.5,0,4.92-1.18,4.92-4.44,0-2.83-2.09-4.47-4.74-4.47s-5,1.41-5,4.47C1059.82,419.75,1062.13,420.93,1064.59,420.93Z" fill="#f1f3f4"/>
    <path d="M1078.29,418.92c0,4.21,2.28,6.5,6.83,6.5a13.71,13.71,0,0,0,5-1v1.45a18.37,18.37,0,0,1-5.32.85c-5.14,0-8.26-2.66-8.26-8.15,0-4.6,3.08-7.85,7.64-7.85s6.53,2.86,6.53,6.11a11.46,11.46,0,0,1-.18,2Zm0-1.28h10.54c0-.17,0-.39,0-.62,0-2.76-1.36-4.89-4.81-4.89C1081.19,412.12,1078.69,414,1078.33,417.64Z" fill="#f1f3f4"/>
  </g>
</svg>
