<svg xmlns="http://www.w3.org/2000/svg" viewBox="0 0 600 400">
  <title>Artboard 1</title>
  <g id="background">
    <rect width="600" height="400" fill="#30373b"/>
  </g>
  <g id="foreground">
    <g id="fluid_typography" data-name="fluid typography">
      <path d="M120.4,270.93a22.6,22.6,0,0,0,5.4.9c9.8,0,13.8-7.1,15.2-16.4l7.2-48h-6l.5-3,5.9-.9,1.2-6.7c2.3-12.8,7.8-20.5,20.3-20.5,4.5,0,9.3,1.4,14.7,1.7q-5.25,36-10.6,71.8h-4.3c3.4-22.5,6.6-45.2,10-67.7-3.3-.8-6.6-1.9-10.9-1.9-9.2,0-13,6.6-15.2,19.2l-.8,4.1h15.8l-.5,3.9H152.5l-7.1,47.9c-1.8,11.7-6.4,20.5-19.8,20.5a28.11,28.11,0,0,1-5.6-.6Z" fill="#f7f8f8"/>
      <path d="M194.6,203.12h1.1l-4.4,31c-.9,6.2-.8,12.8,7.6,12.8,5.4,0,11.1-2.5,18.2-7.9l5.2-35.3,3.4-.6h1l-6.9,46.7h-4.1l.9-6.2c-6.7,4.7-12.9,7.4-18.8,7.4-9.6,0-12.5-6.7-11.2-15.3l4.7-32Z" fill="#f7f8f8"/>
      <path d="M231.2,249.83l6.8-46.1,3.8-.7h.6l-6.8,46.8Zm8.6-62.1,1.2-7.9h5l-1,7.1Z" fill="#f7f8f8"/>
      <path d="M288.8,177.82l3.8-.9h.5l-11,72.9h-4.3l.9-6c-5.6,4.4-11.8,7.2-17.6,7.2-8.3,0-13.8-5.2-13.8-16.7,0-19.5,10-32,27-32a44.15,44.15,0,0,1,10.5,1.7Zm-4.7,30.4a35,35,0,0,0-10.5-1.8c-15.1,0-21.8,13-21.8,27.2,0,8.6,3.2,13.4,10.4,13.4,5.9,0,12.3-3.7,17.1-8.1Z" fill="#f7f8f8"/>
      <path d="M186.9,329.73a35.19,35.19,0,0,1-8.2,1.3c-5.5,0-9.8-1.3-9.8-12.5v-31h-6.1v-3.1l6.1-.9v-12.8l3.9-.7h.4v13.5h15.2v4H173.3v33.4c0,5.8,3.7,6.1,6.7,6.1a26.4,26.4,0,0,0,6.5-1.2Z" fill="#f7f8f8"/>
      <path d="M195.7,352.33c7.2-5.3,10.5-10.1,12.3-15.5l2.1-6.3H209l-16.1-47h4.9l13.7,41.6h.5l13.8-41.6h5l-16,47c-4.3,12.7-7.1,18.5-16.5,25.2Z" fill="#f7f8f8"/>
      <path d="M235.7,283.62l3.9-.9h.6v7.2c5.3-4.5,10.8-7.6,18-7.6,10.3,0,17.9,6.6,17.9,23,0,15.7-7.7,25.7-22.5,25.7-4.4,0-9.4-1.2-13.4-2.3v26.5l-3.9.8h-.6Zm4.5,41c5.1,1.5,9.1,2.4,13.4,2.4,12.5,0,17.8-9.2,17.8-21.3,0-12.7-4.5-19.3-14-19.3-6,0-12.1,3.5-17.2,8.2Z" fill="#f7f8f8"/>
      <path d="M303.9,282.32c14.5,0,21.9,9.8,21.9,24.4S318.4,331,303.9,331s-21.8-9.8-21.8-24.3S289.5,282.32,303.9,282.32ZM304,327c9.9,0,17.1-6.2,17.1-20.3s-7.2-20.3-17.1-20.3-17.2,6.2-17.2,20.3S294.1,327,304,327Z" fill="#f7f8f8"/>
      <path d="M342.4,316.22c-1.7,1.8-3.9,5.2-3.9,8.2,0,2.3,1.5,3.9,6,3.9,4.1,0,8.5-.2,13-.2,8.2,0,14.8,3.2,14.8,12.2,0,7.6-5.3,16-23.2,16-14.3,0-18.8-4.4-18.8-11.5,0-3.8,2.5-9.3,7.5-13.6a5.86,5.86,0,0,1-3.5-5.7c0-2.4.9-6.4,5-10.7-5.3-2.7-8.2-8.1-8.2-15.1,0-9.7,7.1-17.4,18.1-17.4a25.52,25.52,0,0,1,8.2,1.5h16.7v3.6H361.7a18.66,18.66,0,0,1,5,12.3c0,11.3-7.9,17.4-18,17.4A20.82,20.82,0,0,1,342.4,316.22Zm15.1,16.2c-5.3-.1-15.9-.2-16.6-.2-4.1,3.9-6,8.5-6,11.9,0,5.6,4.4,8.2,14.6,8.2,11.4,0,18.2-4.4,18.2-11.5C367.7,335.43,364.1,332.63,357.5,332.43Zm-8.8-19.2c6.8,0,13.4-3.6,13.4-13.5,0-8.6-5.7-13.6-12.9-13.6-7,0-13.5,4.3-13.5,13.6C335.7,309.62,342,313.22,348.7,313.22Z" fill="#f7f8f8"/>
      <path d="M381.5,329.83v-46.2l3.5-.9h.6l.2,9.3c4.5-7.1,9.8-8.9,15.7-8.9.5,0,1,.1,1.6.1v1.4l-.1,3h-1c-6.1,0-11.2,1.8-16.1,10v32.2Z" fill="#f7f8f8"/>
      <path d="M420.2,304.92l14.8-2v-4.1c0-9.5-5.1-12.4-12.1-12.4a38.73,38.73,0,0,0-13.3,2.8l-.5-4.2a48.46,48.46,0,0,1,14.5-2.7c8.7,0,15.8,4,15.8,16.5v30.9l-3.6.7h-.7v-6.3H435c-5,3.8-9.9,6.6-16.3,6.6s-12.4-4.3-12.4-12.5C406.29,312,410.19,306.32,420.2,304.92Zm-.1,21.9c4.7,0,9.8-2.6,14.9-6.5v-13.8l-14.3,2.1c-6.6,1-9.7,4.5-9.7,9.4S414.29,326.83,420.09,326.83Z" fill="#f7f8f8"/>
      <path d="M448.79,283.62l3.9-.9h.6v7.2c5.3-4.5,10.8-7.6,18-7.6,10.3,0,17.9,6.6,17.9,23,0,15.7-7.7,25.7-22.5,25.7-4.4,0-9.4-1.2-13.4-2.3v26.5l-3.9.8h-.6Zm4.5,41c5.1,1.5,9.1,2.4,13.4,2.4,12.5,0,17.8-9.2,17.8-21.3,0-12.7-4.5-19.3-14-19.3-6,0-12.1,3.5-17.2,8.2Z" fill="#f7f8f8"/>
      <path d="M530.19,329.83v-31.6c0-8.5-4.5-11.8-9.8-11.8-4.5,0-11,2.3-18.6,7.4v36h-4.5v-71.9l3.9-1h.6v32.8c7.5-4.9,13.1-7.4,18.9-7.4,7.5,0,13.9,4.3,13.9,15.1v32.4Z" fill="#f7f8f8"/>
      <path d="M540.29,352.33c7.2-5.3,10.5-10.1,12.3-15.5l2.1-6.3h-1.1l-16.1-47h4.9l13.7,41.6h.5l13.8-41.6h5l-16,47c-4.3,12.7-7.1,18.5-16.5,25.2Z" fill="#f7f8f8"/>
    </g>
  </g>
</svg>
