<?xml version="1.0" encoding="UTF-8" standalone="no"?>
<svg width="512px" height="512px" viewBox="0 0 512 512" version="1.1" xmlns="http://www.w3.org/2000/svg" xmlns:xlink="http://www.w3.org/1999/xlink" xmlns:sketch="http://www.bohemiancoding.com/sketch/ns">
    <!-- Generator: Sketch 3.4 (15575) - http://www.bohemiancoding.com/sketch -->
    <title>2015-10-29-patchwork-270deg</title>
    <desc>Created with Sketch.</desc>
    <defs></defs>
    <g id="Page-1" stroke="none" stroke-width="1" fill="none" fill-rule="evenodd" sketch:type="MSPage">
        <g id="2015-10-29-patchwork-270deg" sketch:type="MSArtboardGroup">
            <g id="Group" sketch:type="MSLayerGroup" transform="translate(256.000000, 256.000000) rotate(-90.000000) translate(-256.000000, -256.000000) translate(0.000000, -0.000000)">
                <rect id="white" fill="#F7F8F8" sketch:type="MSShapeGroup" x="128" y="0" width="192" height="192"></rect>
                <rect id="gray03" fill="#5C6870" sketch:type="MSShapeGroup" x="384" y="64" width="128" height="128"></rect>
                <rect id="gray02" fill="#49535A" sketch:type="MSShapeGroup" x="320" y="320" width="192" height="192"></rect>
                <rect id="gray00" fill="#292F32" sketch:type="MSShapeGroup" x="384" y="0" width="128" height="128"></rect>
                <rect id="gray04" fill="#B0B9BF" sketch:type="MSShapeGroup" x="0" y="320" width="128" height="128"></rect>
                <rect id="gray06" fill="#B0B9BF" sketch:type="MSShapeGroup" x="256" y="320" width="128" height="128"></rect>
                <rect id="boldblue" fill="#1476B8" sketch:type="MSShapeGroup" x="0" y="384" width="128" height="128"></rect>
                <rect id="green" fill="#2D8650" sketch:type="MSShapeGroup" x="128" y="384" width="128" height="128"></rect>
                <rect id="gray07" fill="#E9EBED" sketch:type="MSShapeGroup" x="0" y="0" width="128" height="128"></rect>
                <rect id="blue" fill="#397EAC" sketch:type="MSShapeGroup" x="0" y="128" width="192" height="192"></rect>
                <rect id="boldred" fill="#BD1B0F" sketch:type="MSShapeGroup" x="128" y="64" width="192" height="192"></rect>
                <rect id="gray01" fill="#373E43" sketch:type="MSShapeGroup" x="320" y="0" width="128" height="128"></rect>
                <rect id="gray05" fill="#C7CDD1" sketch:type="MSShapeGroup" x="384" y="192" width="128" height="128"></rect>
                <rect id="black" fill="#1C1F22" sketch:type="MSShapeGroup" x="256" y="128" width="192" height="192"></rect>
                <rect id="red" fill="#CC3D33" sketch:type="MSShapeGroup" x="192" y="256" width="128" height="128"></rect>
                <rect id="indigo" fill="#5A6FAF" sketch:type="MSShapeGroup" x="256" y="384" width="128" height="128"></rect>
                <rect id="darkblue" fill="#105F93" sketch:type="MSShapeGroup" x="64" y="320" width="128" height="128"></rect>
            </g>
        </g>
    </g>
</svg>