<svg aria-hidden="true" width="16px" height="16px" viewBox="0 0 16 16" xmlns="http://www.w3.org/2000/svg" fill-rule="evenodd" clip-rule="evenodd" stroke-linejoin="round" stroke-miterlimit="1.414" class="icon icon--cc"><path id="cc" d="M8,0A7.81,7.81,0,0,1,13.7,2.34a7.69,7.69,0,0,1,1.71,2.58A8.15,8.15,0,0,1,16,8a8.16,8.16,0,0,1-.58,3.08,7.34,7.34,0,0,1-1.71,2.54,8.22,8.22,0,0,1-2.66,1.77A8,8,0,0,1,8,16a7.77,7.77,0,0,1-3-.61,8,8,0,0,1-2.6-1.76A8,8,0,0,1,.6,11,8,8,0,0,1,.61,5,8,8,0,0,1,2.37,2.33,7.56,7.56,0,0,1,8,0ZM8,1.44A6.2,6.2,0,0,0,3.4,3.36,6.88,6.88,0,0,0,1.95,5.51a6.34,6.34,0,0,0,0,5A6.77,6.77,0,0,0,5.53,14a6.49,6.49,0,0,0,5,0,6.91,6.91,0,0,0,2.18-1.44A6.15,6.15,0,0,0,14.56,8a6.57,6.57,0,0,0-.49-2.51,6.4,6.4,0,0,0-1.41-2.11A6.33,6.33,0,0,0,8,1.44Zm-.1,5.23-1.07.56a1.1,1.1,0,0,0-.42-.5A1,1,0,0,0,6,6.59Q4.89,6.59,4.89,8a1.75,1.75,0,0,0,.27,1,.92.92,0,0,0,.8.39,1,1,0,0,0,1-.69l1,.5a2.35,2.35,0,0,1-2.1,1.26A2.34,2.34,0,0,1,4.1,9.83,2.47,2.47,0,0,1,3.44,8a2.47,2.47,0,0,1,.66-1.81,2.26,2.26,0,0,1,1.68-.67A2.24,2.24,0,0,1,7.91,6.67Zm4.61,0-1.06.56a1.1,1.1,0,0,0-.42-.5,1,1,0,0,0-.48-.14Q9.5,6.59,9.5,8a1.75,1.75,0,0,0,.27,1,.91.91,0,0,0,.8.39,1,1,0,0,0,1-.69l1,.5a2.46,2.46,0,0,1-.89.92,2.31,2.31,0,0,1-1.21.34,2.33,2.33,0,0,1-1.74-.66A2.48,2.48,0,0,1,8.07,8a2.47,2.47,0,0,1,.66-1.81,2.26,2.26,0,0,1,1.68-.67A2.21,2.21,0,0,1,12.53,6.67Z"/></svg>
