<svg aria-hidden="true" width="16px" height="16px" viewBox="0 0 64 64" version="1.1" xmlns="http://www.w3.org/2000/svg" xmlns:xlink="http://www.w3.org/1999/xlink" class="icon icon--logo-minimal logo--minimal">
  <g stroke="none" stroke-width="1" fill-rule="evenodd">
    <path d="M32,64 C49.673112,64 64,49.673112 64,32 C64,14.326888 49.673112,0 32,0 C14.326888,0 0,14.326888 0,32 C0,49.673112 14.326888,64 32,64 Z M32,60 C47.463973,60 60,47.463973 60,32 C60,16.536027 47.463973,4 32,4 C16.536027,4 4,16.536027 4,32 C4,47.463973 16.536027,60 32,60 Z" class="logo-layer15"></path>
    <path d="M32,52 C43.045695,52 52,43.045695 52,32 C52,20.954305 43.045695,12 32,12 C20.954305,12 12,20.954305 12,32 C12,43.045695 20.954305,52 32,52 Z M32,48 C40.836556,48 48,40.836556 48,32 C48,23.163444 40.836556,16 32,16 C23.163444,16 16,23.163444 16,32 C16,40.836556 23.163444,48 32,48 Z" class="logo-layer10"></path>
    <circle class="logo-layer1" cx="32" cy="32" r="10"></circle>
  </g>
</svg>
