<svg aria-hidden="true" width="16px" height="16px" viewBox="0 0 32 32" version="1.1" xmlns="http://www.w3.org/2000/svg" xmlns:xlink="http://www.w3.org/1999/xlink" class="icon icon--logo-minimal logo--minimal">
  <g stroke="none" stroke-width="1" fill-rule="evenodd">
    <path d="M16,32 C24.836556,32 32,24.836556 32,16 C32,7.163444 24.836556,0 16,0 C7.163444,0 0,7.163444 0,16 C0,24.836556 7.163444,32 16,32 Z M16,30 C23.7319865,30 30,23.7319865 30,16 C30,8.2680135 23.7319865,2 16,2 C8.2680135,2 2,8.2680135 2,16 C2,23.7319865 8.2680135,30 16,30 Z" id="layer15"></path>
    <path d="M16,28 C22.627417,28 28,22.627417 28,16 C28,9.372583 22.627417,4 16,4 C9.372583,4 4,9.372583 4,16 C4,22.627417 9.372583,28 16,28 Z M16,27 C22.0751322,27 27,22.0751322 27,16 C27,9.92486775 22.0751322,5 16,5 C9.92486775,5 5,9.92486775 5,16 C5,22.0751322 9.92486775,27 16,27 Z" id="layer10"></path>
    <path d="M16,25 C20.9705627,25 25,20.9705627 25,16 C25,11.0294373 20.9705627,7 16,7 C11.0294373,7 7,11.0294373 7,16 C7,20.9705627 11.0294373,25 16,25 Z M16,23 C19.8659932,23 23,19.8659932 23,16 C23,12.1340068 19.8659932,9 16,9 C12.1340068,9 9,12.1340068 9,16 C9,19.8659932 12.1340068,23 16,23 Z" id="layer2"></path>
    <path d="M16,20 C18.209139,20 20,18.209139 20,16 C20,13.790861 18.209139,12 16,12 C13.790861,12 12,13.790861 12,16 C12,18.209139 13.790861,20 16,20 Z M16,18 C17.1045695,18 18,17.1045695 18,16 C18,14.8954305 17.1045695,14 16,14 C14.8954305,14 14,14.8954305 14,16 C14,17.1045695 14.8954305,18 16,18 Z" id="layer1"></path>
  </g>
</svg>
